<svg width="30" height="17" fill="none" xmlns="http://www.w3.org/2000/svg"><path d="M29.983 8.32c-.009-.04-.022-.076-.035-.114-.006-.018-.01-.038-.017-.056a.873.873 0 00-.062-.12c-.007-.011-.012-.025-.02-.037a.918.918 0 00-.111-.138L22.292.267a.882.882 0 00-1.264 0 .923.923 0 000 1.288l5.92 6.034H.894a.903.903 0 00-.894.91c0 .504.4.912.894.912h26.054l-5.921 6.034a.923.923 0 000 1.288.883.883 0 001.265 0l7.446-7.588a.925.925 0 00.111-.139c.009-.012.013-.025.02-.037a.873.873 0 00.063-.12c.007-.017.01-.038.016-.056.013-.037.026-.074.035-.113a.907.907 0 000-.36z" fill="#000"/></svg>