<svg width="159" height="20" fill="none" xmlns="http://www.w3.org/2000/svg"><path d="M9.124 6.633a2.514 2.514 0 11-5.027 0 2.514 2.514 0 015.027 0zm6.788 0a2.514 2.514 0 11-5.028 0 2.514 2.514 0 015.028 0zm-6.788 6.733a2.514 2.514 0 11-5.027 0 2.514 2.514 0 015.027 0zm6.788 0a2.514 2.514 0 11-5.028 0 2.514 2.514 0 015.028 0z" fill="gray"/><path fill-rule="evenodd" clip-rule="evenodd" d="M0 10c0 5.514 4.487 10 10.003 10s10.004-4.486 10.004-10S15.519 0 10.003 0C4.487 0 0 4.486 0 10zm.417 0c0-5.284 4.3-9.583 9.586-9.583C15.29.417 19.59 4.716 19.59 10s-4.3 9.583-9.587 9.583C4.717 19.583.417 15.284.417 10zm97.63 1.063v-.045c0-.558.075-1.06.225-1.504.159-.456.373-.826.644-1.11a2.74 2.74 0 012.028-.875c.717 0 1.23.256 1.539.767V5.771c0-.402-.072-.692-.216-.872-.144-.18-.397-.27-.76-.27v-.273c.271.026.536.039.794.039.551 0 .995-.062 1.333-.184v8.774c0 .402.072.692.216.872.144.18.397.27.76.27v.273a8.514 8.514 0 00-.794-.039c-.551 0-.995.062-1.333.184v-1.154c-.321.795-.928 1.193-1.821 1.193-.822 0-1.464-.299-1.927-.895-.463-.596-.692-1.472-.688-2.627zM43.644 5.288c0-.224.08-.419.24-.584a.779.779 0 01.58-.247c.22 0 .412.082.575.247.163.165.244.36.244.584a.8.8 0 01-.244.587.787.787 0 01-.576.244.784.784 0 01-.578-.244.806.806 0 01-.241-.587zm-14.16 9.11v-.26c.309-.012.531-.046.667-.101a.504.504 0 00.288-.305c.056-.148.084-.385.084-.71V6.577c0-.326-.028-.563-.084-.71a.504.504 0 00-.288-.305c-.136-.055-.358-.089-.667-.102V5.2c.355.026.876.038 1.565.038.308 0 .692-.004 1.15-.012.46-.009.72-.013.783-.013.872 0 1.54.186 2.005.558.465.372.698.867.698 1.485 0 .499-.156.947-.466 1.345-.311.397-.804.702-1.48.913v.026c.488.067.907.177 1.258.33.35.152.621.336.813.552.192.215.33.443.416.682.086.239.128.498.128.777 0 .748-.276 1.355-.829 1.82-.552.466-1.302.699-2.249.699-.07 0-.355-.007-.85-.02a53.714 53.714 0 00-1.352-.019c-.701 0-1.23.013-1.59.039zm2.228-1.376c0 .452.06.745.181.879.121.133.382.2.782.2 1.598 0 2.397-.76 2.397-2.278 0-.681-.183-1.2-.548-1.555-.365-.355-.944-.533-1.736-.533h-1.076v3.287zm.863-3.509h-.863V6.577c0-.453.061-.752.184-.898.123-.146.379-.219.767-.219.63 0 1.087.16 1.37.48.284.319.426.804.426 1.455 0 .305-.029.576-.085.813a2.058 2.058 0 01-.288.662c-.135.206-.33.364-.585.476-.254.112-.563.168-.926.168zM37.3 14.4v-.273c.359 0 .611-.067.757-.2.146-.133.22-.378.22-.733V9.127c0-.401-.073-.693-.217-.875-.143-.182-.397-.273-.76-.273v-.273c.267.026.532.038.795.038.542 0 .986-.059 1.332-.177V9.19c.155-.432.4-.816.736-1.155.336-.338.71-.507 1.123-.507.342 0 .622.1.841.298.22.199.329.44.329.723a.871.871 0 01-.2.58.66.66 0 01-.532.239.694.694 0 01-.482-.181.63.63 0 01-.2-.492c0-.283.146-.518.438-.704-.059-.085-.148-.127-.27-.127-.254 0-.497.081-.728.244a1.997 1.997 0 00-.57.616 3.653 3.653 0 00-.353.793 2.664 2.664 0 00-.132.79v2.753c0 .402.113.68.338.834.226.155.566.232 1.02.232v.273a86.84 86.84 0 00-1.97-.051c-.226 0-.73.017-1.515.05zm5.7-.273v.273a45.7 45.7 0 011.552-.051c.25 0 .767.017 1.551.05v-.272c-.358 0-.61-.067-.756-.2-.146-.133-.22-.378-.22-.733V7.567c-.346.118-.79.177-1.332.177-.263 0-.528-.012-.795-.038v.273c.363 0 .616.091.76.273.144.182.216.474.216.875v4.067c0 .355-.073.6-.219.733-.146.133-.398.2-.757.2zm3.754 0v.273a45.811 45.811 0 011.54-.051c.241 0 .721.017 1.438.05v-.272c-.317 0-.538-.067-.663-.2s-.187-.378-.187-.733v-2.887c0-.672.166-1.235.5-1.687.334-.453.766-.679 1.295-.679.18 0 .334.028.463.083.13.055.23.124.304.209a.9.9 0 01.172.333c.041.137.069.272.081.403.013.13.019.287.019.47v3.755c0 .355-.063.6-.188.733s-.344.2-.657.2v.273a37.978 37.978 0 011.433-.051c.242 0 .755.017 1.54.05v-.272c-.36 0-.612-.067-.758-.2-.146-.133-.219-.378-.219-.733v-3.47c0-.44-.034-.79-.103-1.05a1.57 1.57 0 00-.341-.657c-.309-.325-.761-.488-1.358-.488-.48 0-.91.123-1.292.37-.381.248-.679.647-.891 1.197v-1.53c-.347.12-.79.178-1.333.178a8.39 8.39 0 01-.795-.038v.273c.363 0 .617.091.76.273.144.182.216.474.216.875v4.067c0 .355-.073.6-.219.733-.146.133-.398.2-.757.2zm7.527 1.522c0-.296.154-.581.46-.856a4.61 4.61 0 011.148-.73h-.044a1.832 1.832 0 01-.804-.165.766.766 0 01-.347-.307.965.965 0 01-.131-.517c0-.296.122-.578.366-.844.244-.267.656-.533 1.236-.8-.793-.313-1.19-.93-1.19-1.852 0-.461.106-.848.317-1.161.21-.313.489-.54.835-.679.346-.14.75-.21 1.214-.21.33 0 .632.039.907.115.088-.482.238-.867.45-1.155.23-.287.522-.431.877-.431.212 0 .378.063.497.19s.178.29.178.489a.607.607 0 01-.613.621c-.217 0-.373-.066-.47-.2-.095-.133-.166-.339-.212-.618-.125.114-.24.326-.344.634-.067.229-.11.409-.131.54.821.308 1.232.93 1.232 1.865 0 .685-.218 1.199-.654 1.542-.436.342-1.008.513-1.717.513-.355 0-.67-.04-.945-.12a4.633 4.633 0 00-.798.517c-.185.159-.278.329-.278.51 0 .288.204.432.613.432h3.01c.446 0 .808.095 1.085.286.277.19.416.497.416.92 0 .236-.044.476-.131.72a2.45 2.45 0 01-.42.716 3.076 3.076 0 01-.697.622c-.273.18-.611.326-1.014.438a4.922 4.922 0 01-1.323.168 5.59 5.59 0 01-1.242-.13 2.591 2.591 0 01-.954-.406c-.255-.184-.382-.403-.382-.657zm1.349.438a.958.958 0 01-.298-.71c0-.25.077-.496.232-.74.154-.243.367-.434.638-.574h2.384c.375 0 .632.057.77.172.137.114.206.298.206.552 0 .3-.072.57-.216.812a1.685 1.685 0 01-.563.577 3.043 3.043 0 01-1.58.444c-.304 0-.593-.04-.866-.12a1.663 1.663 0 01-.707-.413zm.547-6.51c0 .66.1 1.13.297 1.406.198.277.487.416.867.416.384 0 .674-.138.873-.413.198-.275.297-.744.297-1.408 0-.664-.1-1.134-.297-1.409-.199-.274-.49-.412-.873-.412-.38 0-.669.139-.867.416-.198.277-.297.745-.297 1.405zm7.64-1.87v.272c.342 0 .632.243.87.73l2.327 5.671-.457 1.187c-.254.677-.617 1.015-1.088 1.015a.172.172 0 01-.076-.013.633.633 0 00.345-.583c0-.195-.062-.345-.185-.45a.69.69 0 00-.466-.16c-.213 0-.38.063-.5.188a.685.685 0 00-.182.498c0 .245.081.436.244.574.163.137.371.206.626.206.425 0 .759-.112 1-.336.205-.182.388-.486.551-.914l.438-1.129 2.102-5.583c.117-.317.242-.543.376-.679a.762.762 0 01.457-.235v-.26c-.267.026-.593.038-.976.038-.267 0-.626-.012-1.077-.038v.26c.334.022.577.08.73.178.152.097.228.247.228.45 0 .144-.046.343-.138.597l-1.414 3.762-1.546-3.883c-.108-.27-.162-.484-.162-.64a.427.427 0 01.172-.356.527.527 0 01.206-.066 1.99 1.99 0 01.235-.026c.063-.002.156-.003.282-.003v-.273c-.743.055-1.298.083-1.665.083-.438 0-.857-.028-1.257-.083zm7.107 3.356c0-.491.05-.933.147-1.327.099-.393.234-.726.407-.999.173-.273.383-.5.629-.682.246-.182.512-.315.798-.4a3.26 3.26 0 01.929-.126c.334 0 .643.042.929.127.286.084.552.217.798.4.246.181.455.408.629.681.173.273.308.606.406 1 .098.393.147.835.147 1.325 0 .605-.074 1.137-.222 1.596-.148.459-.356.827-.626 1.104a2.585 2.585 0 01-.92.618 3.093 3.093 0 01-1.141.204c-.417 0-.798-.068-1.142-.204a2.597 2.597 0 01-.92-.618c-.269-.277-.477-.645-.626-1.104-.147-.459-.222-.99-.222-1.595zm1.693 2.464c-.298-.53-.448-1.352-.448-2.464 0-1.117.15-1.942.448-2.475.298-.533.704-.8 1.217-.8.513 0 .919.267 1.217.8.298.533.447 1.358.447 2.475 0 1.112-.149 1.933-.447 2.464-.298.531-.704.796-1.217.796-.513 0-.919-.265-1.217-.796zm4.933-5.548v-.273c.267.026.532.038.795.038.538 0 .982-.059 1.333-.177v5.107c0 .194.004.352.012.473.009.12.03.252.066.396a.835.835 0 00.153.336c.067.08.162.148.285.203.123.055.274.083.454.083.496 0 .909-.225 1.238-.676.33-.45.495-1.01.495-1.678V9.127c0-.401-.072-.693-.216-.875-.144-.182-.398-.273-.76-.273v-.273c.267.026.532.038.794.038.543 0 .987-.059 1.333-.177v5.43c0 .402.072.693.216.873.144.18.397.27.76.27v.272a8.519 8.519 0 00-.795-.038c-.55 0-.994.061-1.332.184v-1.535c-.209.533-.5.926-.873 1.18a2.14 2.14 0 01-1.23.38c-.575 0-1.02-.164-1.332-.494-.284-.31-.426-.876-.426-1.7V9.126c0-.401-.07-.693-.213-.875-.141-.182-.394-.273-.757-.273zm7.609 6.148v.273a46.58 46.58 0 011.514-.051c.263 0 .92.017 1.97.05v-.272c-.454 0-.794-.077-1.02-.232-.224-.154-.337-.432-.337-.834v-2.754c0-.245.044-.508.131-.79.088-.28.206-.545.354-.792.148-.248.338-.453.57-.616.23-.163.474-.244.728-.244.121 0 .21.042.27.127-.293.186-.439.42-.439.704a.63.63 0 00.2.492c.134.12.295.18.482.18a.66.66 0 00.532-.237.871.871 0 00.2-.58.941.941 0 00-.328-.724c-.22-.199-.5-.298-.842-.298-.413 0-.787.169-1.123.507a3.12 3.12 0 00-.735 1.155V7.567c-.346.118-.79.177-1.333.177a8.19 8.19 0 01-.794-.038v.273c.363 0 .616.091.76.273.144.182.216.474.216.875v4.067c0 .355-.073.6-.22.733-.145.133-.398.2-.756.2zm8.89.273v-.273c.36 0 .612-.067.758-.2.146-.133.219-.378.219-.733V9.127c0-.401-.072-.693-.216-.875-.144-.182-.397-.273-.76-.273v-.273c.267.026.531.038.794.038.543 0 .987-.059 1.333-.177v5.627c0 .355.073.6.219.733.146.133.398.2.757.2v.273a45.691 45.691 0 00-1.552-.051c-.25 0-.767.017-1.551.05zm.886-9.695a.809.809 0 00-.24.584c0 .229.08.424.24.587.16.163.353.244.579.244a.787.787 0 00.575-.244.8.8 0 00.244-.587.804.804 0 00-.244-.584.782.782 0 00-.575-.247.779.779 0 00-.579.247zm4.358 6.402v-.083c0-1.04.16-1.831.482-2.372.325-.55.751-.825 1.276-.825.718 0 1.195.334 1.433 1.002v3.864c-.096.474-.279.842-.548 1.104-.269.262-.57.393-.904.393-.579.004-1.015-.256-1.307-.78-.292-.516-.436-1.284-.432-2.303zm6.175.108c0-1.138.262-2.037.786-2.697.523-.66 1.227-.99 2.111-.99.768 0 1.359.236 1.774.708.415.472.623 1.188.623 2.148h-4.005c-.029.232-.043.51-.043.83 0 .85.196 1.534.588 2.05.392.516.849.774 1.37.774.859 0 1.487-.434 1.883-1.3l.257.1a2.591 2.591 0 01-.867 1.232c-.423.342-.933.514-1.53.514-.913 0-1.633-.31-2.158-.927-.526-.617-.789-1.431-.789-2.442zm4.061-1.079h-2.79c.066-.782.245-1.371.535-1.767.289-.395.637-.593 1.041-.593.409 0 .72.224.933.673.191.406.287.898.287 1.478 0 .067-.002.137-.006.21zm2.334 2.9c0-.25.044-.472.131-.667.088-.194.231-.372.429-.533a4.07 4.07 0 01.632-.421c.223-.121.514-.257.873-.41.054-.025.145-.063.272-.114.127-.05.217-.088.269-.11l.235-.106a2.03 2.03 0 00.222-.11c.043-.028.102-.064.175-.108a.67.67 0 00.156-.121c.032-.036.066-.078.103-.127a.448.448 0 00.079-.149.595.595 0 00.022-.159v-.805c0-.504-.104-.847-.31-1.031-.207-.184-.5-.276-.879-.276-.605 0-1.028.154-1.27.463a.794.794 0 01.6.793c0 .22-.067.392-.203.517s-.318.187-.548.187a.626.626 0 01-.509-.222c-.123-.148-.185-.342-.185-.584 0-.338.2-.647.601-.926.492-.325 1.09-.488 1.795-.488.714 0 1.231.162 1.552.488.196.203.331.439.404.708.073.268.109.64.109 1.113v3.61c0 .216.03.372.091.47.06.097.161.145.303.145.175 0 .367-.09.576-.273l.144.223a6.5 6.5 0 01-.351.253 1.408 1.408 0 01-.344.153c-.146.046-.304.07-.475.07-.413 0-.7-.105-.861-.315-.16-.209-.24-.49-.24-.84-.251.418-.551.716-.901.891a2.367 2.367 0 01-1.07.263c-.463 0-.85-.122-1.161-.368-.311-.245-.466-.606-.466-1.084zm1.408.644c-.188-.193-.282-.477-.282-.854 0-.237.036-.448.107-.634.07-.186.176-.344.315-.473.14-.129.267-.23.382-.301.115-.072.262-.152.441-.241.463-.229.768-.385.914-.47a.901.901 0 00.313-.273v2.55c-.397.656-.878.984-1.446.984-.308 0-.557-.096-.744-.288zm5.18.808c.034-.495.05-1.36.05-2.594h.294c.038.313.081.583.129.812.048.228.116.45.203.666.088.216.194.389.319.52s.283.236.473.314c.189.078.409.117.66.117.3 0 .565-.1.794-.3.23-.202.344-.514.344-.937a1.15 1.15 0 00-.078-.422 1.524 1.524 0 00-.184-.345 1.884 1.884 0 00-.323-.324 5.208 5.208 0 00-.388-.295 20.197 20.197 0 00-.478-.314 28.776 28.776 0 01-.31-.2 23.694 23.694 0 01-.281-.19 3.973 3.973 0 01-.285-.206l-.238-.203a1.435 1.435 0 01-.225-.229l-.169-.238c-.071-.1-.12-.192-.147-.279a3.207 3.207 0 01-.075-.295 1.67 1.67 0 01-.035-.342c0-.55.181-.967.542-1.25.36-.284.812-.425 1.354-.425s1.008.158 1.396.475c.091.072.166.108.225.108.15 0 .246-.19.288-.57h.294c-.034.422-.05 1.158-.05 2.207h-.294c-.213-1.315-.795-1.973-1.746-1.973-.309 0-.561.088-.757.263-.196.176-.294.42-.294.733 0 .11.013.213.04.308a.868.868 0 00.138.276 1.724 1.724 0 00.457.466c.119.087.217.157.294.21.077.052.195.129.353.228a17.507 17.507 0 01.923.612c.144.102.301.229.47.38.168.153.299.298.391.435.091.138.17.3.234.486.065.186.097.383.097.59 0 .385-.103.718-.31.999a1.83 1.83 0 01-.797.622c-.326.133-.686.2-1.083.2a2.64 2.64 0 01-1.013-.184 3.05 3.05 0 01-.526-.35.16.16 0 00-.119-.05c-.125 0-.213.163-.263.488h-.294zm8.247-6.769v.26h1.232v4.352c0 .47.038.843.113 1.12.075.277.204.51.388.701.284.288.688.432 1.214.432.901 0 1.456-.599 1.664-1.796l-.25-.063c-.129.495-.288.85-.476 1.066a.872.872 0 01-.682.323c-.271 0-.475-.086-.613-.257-.137-.171-.206-.454-.206-.847V7.98h1.896v-.261h-1.896v-2.17c-.288.11-.672.172-1.152.184V7.72h-1.232zm5.087 3.343c0-.49.049-.932.147-1.326a3.39 3.39 0 01.406-.999 2.525 2.525 0 011.427-1.081 3.26 3.26 0 01.929-.127c.334 0 .644.042.929.127.286.084.552.217.798.4.246.181.456.408.629.681.173.273.308.606.407 1 .098.393.147.835.147 1.325 0 .605-.074 1.137-.223 1.596-.148.459-.356.827-.625 1.104a2.599 2.599 0 01-.92.618 3.094 3.094 0 01-1.142.204c-.417 0-.798-.068-1.142-.204a2.608 2.608 0 01-.92-.618c-.269-.277-.477-.645-.625-1.104-.148-.459-.222-.99-.222-1.595zm1.692 2.465c-.298-.53-.447-1.352-.447-2.464 0-1.117.149-1.942.447-2.475.298-.533.704-.8 1.217-.8.513 0 .919.267 1.217.8.298.533.447 1.358.447 2.475 0 1.112-.149 1.933-.447 2.464-.298.531-.704.796-1.217.796-.513 0-.919-.265-1.217-.796zm8.2.873v-.273c.358 0 .611-.067.757-.2.146-.133.219-.378.219-.733V5.771c0-.402-.072-.692-.216-.872-.144-.18-.397-.27-.76-.27v-.273c.267.026.532.039.794.039.551 0 .995-.062 1.333-.184v8.983c0 .355.073.6.219.733.146.133.398.2.757.2v.273a45.63 45.63 0 00-1.552-.051c-.25 0-.767.017-1.551.05zm3.754-.273v.273a45.63 45.63 0 011.552-.051c.25 0 .767.017 1.551.05v-.272c-.358 0-.611-.067-.757-.2-.146-.133-.219-.378-.219-.733V7.567c-.346.118-.79.177-1.333.177a8.19 8.19 0 01-.794-.038v.273c.363 0 .616.091.76.273.144.182.216.474.216.875v4.067c0 .355-.073.6-.219.733-.146.133-.398.2-.757.2zm.644-8.838c0-.224.081-.419.241-.584a.78.78 0 01.579-.247c.221 0 .413.082.576.247.162.165.244.36.244.584a.803.803 0 01-.244.587.788.788 0 01-.576.244.785.785 0 01-.579-.244.808.808 0 01-.241-.587zm3.072 2.43v.26h1.027v5.215c0 .355-.073.6-.219.733-.146.133-.399.2-.758.2v.273a49.782 49.782 0 011.515-.051c.262 0 .919.017 1.971.05v-.272c-.455 0-.795-.077-1.02-.232-.226-.154-.338-.432-.338-.834V7.979h1.376v-.26h-1.376v-.336c0-.783.014-1.346.044-1.691.029-.345.091-.604.187-.777.175-.322.453-.482.832-.482.171 0 .313.027.426.082.113.055.181.123.206.203a.675.675 0 00-.391.225.66.66 0 00-.147.441c0 .212.068.38.204.508.135.127.301.19.497.19a.66.66 0 00.491-.193.672.672 0 00.191-.492c0-.317-.133-.586-.4-.806-.305-.237-.676-.355-1.114-.355a2.16 2.16 0 00-.87.174 1.71 1.71 0 00-.651.48 2.485 2.485 0 00-.513 1.062c-.096.417-.143 1.006-.143 1.767h-1.027zm4.512 3.496c0-1.138.261-2.037.785-2.697.523-.66 1.227-.99 2.112-.99.767 0 1.358.236 1.773.708.415.472.623 1.188.623 2.148h-4.004c-.03.232-.044.51-.044.83 0 .85.196 1.534.588 2.05.392.516.849.774 1.37.774.859 0 1.487-.434 1.883-1.3l.257.1a2.585 2.585 0 01-.867 1.232c-.423.342-.933.514-1.529.514-.914 0-1.633-.31-2.159-.927-.526-.617-.788-1.431-.788-2.442zm4.06-1.079h-2.79c.066-.782.245-1.371.535-1.767.29-.395.637-.593 1.041-.593.409 0 .72.224.933.673.192.406.288.898.288 1.478 0 .067-.003.137-.007.21z" fill="gray"/><path d="M44.225 6.316a1.053 1.053 0 100-2.106 1.053 1.053 0 000 2.106zm51.543 0a1.053 1.053 0 100-2.106 1.053 1.053 0 000 2.106zm50.596 0a1.053 1.053 0 100-2.107 1.053 1.053 0 000 2.107z" fill="gray"/></svg>