<svg width="24" height="24" fill="none" xmlns="http://www.w3.org/2000/svg"><path d="M23.304 5.608L5.16 3.288l-.368-2.6A.801.801 0 004 0H.8C.36 0 0 .36 0 .8c0 .44.36.8.8.8h2.504l.36 2.504v.008l1.344 9.368-1.216 2.656a1.577 1.577 0 00.104 1.528c.296.464.8.736 1.352.736H21.6c.44 0 .8-.36.8-.8 0-.44-.36-.8-.8-.8H5.248l1.096-2.4H21.68c.824 0 1.504-.616 1.592-1.424l.72-6.488a.797.797 0 00-.688-.88zM19.2 19.2c-1.32 0-2.4 1.08-2.4 2.4 0 1.32 1.08 2.4 2.4 2.4 1.32 0 2.4-1.08 2.4-2.4 0-1.32-1.08-2.4-2.4-2.4zm-12 0c-1.32 0-2.4 1.08-2.4 2.4 0 1.32 1.08 2.4 2.4 2.4 1.32 0 2.4-1.08 2.4-2.4 0-1.32-1.08-2.4-2.4-2.4z" fill="#41C59F"/></svg>