<svg width="20" height="20" fill="none" xmlns="http://www.w3.org/2000/svg"><path fill-rule="evenodd" clip-rule="evenodd" d="M17.07 0H2.93A2.93 2.93 0 000 2.93v14.14A2.93 2.93 0 002.93 20h14.14A2.93 2.93 0 0020 17.07V2.93A2.93 2.93 0 0017.07 0zM4.727 10.04A5.281 5.281 0 0010 15.312a5.281 5.281 0 005.273-5.274A5.281 5.281 0 0010 4.766a5.281 5.281 0 00-5.273 5.273zm11.718-5.274a1.175 1.175 0 01-1.172-1.172c0-.645.528-1.172 1.172-1.172.645 0 1.172.527 1.172 1.172 0 .644-.527 1.172-1.172 1.172zM5.898 10.039A4.106 4.106 0 0110 5.938a4.106 4.106 0 014.102 4.101A4.106 4.106 0 0110 14.141a4.106 4.106 0 01-4.102-4.102z" fill="#000"/></svg>