<svg width="16" height="16" fill="none" xmlns="http://www.w3.org/2000/svg"><path fill-rule="evenodd" clip-rule="evenodd" d="M12.818 11.653l2.96 2.957a.833.833 0 01-.019 1.152.722.722 0 01-.556.238.785.785 0 01-.557-.238l-2.96-2.958a7.227 7.227 0 01-4.492 1.568 7.159 7.159 0 01-5.087-2.104C.755 10.898 0 9.112 0 7.186c0-1.925.755-3.732 2.107-5.082C3.477.754 5.267 0 7.194 0a7.16 7.16 0 015.087 2.104c2.584 2.561 2.802 6.73.537 9.549zm-1.65-.536a5.552 5.552 0 001.63-3.95 5.564 5.564 0 00-5.584-5.578A5.564 5.564 0 001.63 7.165a5.564 5.564 0 005.584 5.578c1.49 0 2.901-.575 3.954-1.627z" fill="#41C59F"/></svg>