<svg width="202" height="45" fill="none" xmlns="http://www.w3.org/2000/svg"><path d="M63.915 33.69h-5.968c.77-10.227 1.54-20.382 2.31-30.586h6.835c2.526 6.883 5.366 13.669 7.652 20.768.385-1.083.674-2.07 1.059-3.008 1.492-3.85 2.984-7.7 4.5-11.55a404.91 404.91 0 012.286-5.728c.192-.482.192-.482.698-.482h5.775c.145 0 .313.025.53.025.673 10.203 1.371 20.358 2.045 30.585h-6.04c-.41-6.545-.842-13.115-1.18-19.805-.12.217-.192.313-.24.433L76.886 33.04c-.217.53-.217.53-.794.53h-3.947c-2.31-6.353-4.62-12.706-6.978-19.131-.41 6.449-.819 12.826-1.252 19.251z" fill="#000"/><path fill-rule="evenodd" clip-rule="evenodd" d="M28.132 9.433c-1.781 2.792-2.455 5.896-2.503 9.289.024 1.588.192 3.297.698 4.957 1.347 4.572 4.139 7.845 8.639 9.554 2.984 1.13 6.04 1.25 9.144.601 5.102-1.107 8.711-4.043 10.588-8.928 1.492-3.898 1.637-7.94.482-11.96-1.3-4.524-4.14-7.748-8.615-9.409-2.864-1.034-5.8-1.203-8.76-.625-4.139.794-7.411 2.936-9.673 6.521zm5.462 15.329c-1.107-1.95-1.54-4.043-1.54-6.882.024-1.709.457-3.923 1.612-5.968 1.276-2.214 3.129-3.634 5.68-4.019 4.018-.626 7.219 1.155 8.927 4.717 1.083 2.262 1.42 4.668 1.18 7.147-.145 1.564-.506 3.056-1.204 4.476-.938 1.9-2.286 3.393-4.283 4.187-3.249 1.3-7.87.794-10.372-3.658zm101.79 8.948l.001.004h6.521c-2.056-5.566-4.097-11.124-6.137-16.676-1.708-4.65-3.414-9.294-5.125-13.934h-6.304c-.019.048-.038.087-.055.124a.837.837 0 00-.066.165 13014.97 13014.97 0 00-5.51 15.052 15202.42 15202.42 0 01-5.511 15.053c-.024.048-.024.072-.024.12 0 0 .024.024.024.048 0 .012.006.018.012.024.006.006.012.012.012.024h6.305c.072-.192.144-.385.216-.553.47-1.3.933-2.605 1.396-3.91.463-1.306.927-2.612 1.396-3.911.097-.279.145-.417.242-.486.096-.068.241-.068.528-.068h8.807c1.107 3.007 2.189 5.966 3.272 8.925zm-7.964-22.424c1.035 2.84 2.045 5.607 3.08 8.423h-6.112a3694.15 3694.15 0 013.032-8.423zM95.585 33.714h6.04v-11.19h1.203c2.094.072 4.187-.096 6.208-.698 1.974-.577 3.73-1.492 5.126-2.983 2.166-2.335 2.719-5.126 2.286-8.158-.457-3.08-2.238-5.222-5.029-6.522-1.853-.866-3.85-1.203-5.872-1.275-2.96-.12-5.895.072-8.807.481-.293.035-.585.094-.869.15-.113.024-.225.046-.334.067-.12 1.396-.073 29.67.048 30.128zm6.064-16.484V8.062l.025-.002c2.036-.144 4.025-.284 5.943.41 1.347.482 2.406 1.324 2.695 2.816.481 2.479-.361 4.62-2.96 5.583-.361.12-.722.24-1.107.313a13.98 13.98 0 01-4.476.12c-.017 0-.034-.012-.068-.036a2.121 2.121 0 00-.052-.036z" fill="#000"/><path d="M25.894 4.404c-.53 1.684-1.059 3.32-1.612 5.005-.29-.12-.506-.193-.746-.313-2.43-1.107-5.006-1.396-7.653-1.155-.962.096-1.9.265-2.815.578-3.249 1.107-5.294 3.32-6.137 6.641a13.007 13.007 0 00-.048 6.45c.89 3.705 3.249 5.992 6.907 6.906 2.887.698 5.775.481 8.615-.361.505-.144.962-.385 1.444-.578.168-.072.336-.144.577-.24.481 1.684.939 3.32 1.396 4.981-.77.433-1.564.746-2.359.987-1.925.553-3.922.77-5.92.866-2.574.12-5.1-.144-7.555-1.01-3.538-1.228-6.305-3.418-8.062-6.787a14.213 14.213 0 01-1.54-4.933c-.337-2.575-.265-5.15.481-7.652C2.24 9.144 5.2 5.944 9.627 4.043c2.07-.89 4.259-1.324 6.497-1.42 2.31-.096 4.572.048 6.81.601 1.01.265 1.973.65 2.96 1.18zm141.161-.048a413.503 413.503 0 00-1.612 5.077 24.46 24.46 0 00-.867-.385c-3.224-1.396-6.521-1.612-9.89-.674-3.585.987-5.823 3.37-6.69 7.027-.481 2.094-.505 4.211.024 6.28.915 3.683 3.273 5.945 6.907 6.835 2.984.722 5.968.481 8.879-.457.41-.12.77-.337 1.18-.506.168-.072.336-.144.577-.24a385.98 385.98 0 011.396 4.981 8.763 8.763 0 01-1.685.746c-1.636.578-3.345.842-5.077 1.01-1.877.17-3.754.193-5.631-.095-3.826-.554-7.195-2.046-9.794-5.03-1.661-1.925-2.671-4.163-3.129-6.666-.553-2.984-.481-5.944.433-8.831 1.468-4.572 4.525-7.7 8.952-9.481 2.094-.843 4.284-1.252 6.522-1.3 2.478-.072 4.933.096 7.291.842.77.217 1.468.554 2.214.867zm15.785 29.358h-6.16V8.374h-9.313v-5.27h24.81V8.35h-9.337v25.364zM32.174 40.043h.963c.505 1.251 1.034 2.527 1.54 3.826.553-1.275 1.083-2.55 1.612-3.826h.963c.12 1.588.24 3.152.36 4.765h-.721a196.446 196.446 0 01-.241-3.827h-.096c-.53 1.276-1.083 2.527-1.613 3.803h-.601a246.8 246.8 0 00-1.492-3.779h-.096c-.097 1.276-.169 2.527-.265 3.803h-.698c.12-1.565.24-3.129.385-4.765z" fill="#000"/><path fill-rule="evenodd" clip-rule="evenodd" d="M197.399.481c-1.106.554-1.516 1.565-1.54 2.527 0 1.853.939 2.984 2.479 3.177 1.492.192 2.767-.65 3.128-2.094.073-.289.097-.578.121-.866.096-2.31-2.118-3.778-4.188-2.744zm2.792 1.011c.385.505.529 1.083.529 1.709 0 .553-.12 1.13-.505 1.612a1.866 1.866 0 01-3.08-.048c-.626-.89-.602-2.359.024-3.225a1.882 1.882 0 013.032-.048z" fill="#000"/><path d="M161.712 40.091c.505-.169.842-.024 1.107.385.746 1.083 1.54 2.166 2.31 3.225.048.072.072.144.168.12v-3.778h.626v4.74c-.457.169-.77.024-1.035-.36-.818-1.132-1.66-2.263-2.527-3.442v3.826h-.673c.024-1.564.024-3.128.024-4.716z" fill="#000"/><path fill-rule="evenodd" clip-rule="evenodd" d="M51.137 40.115v4.716c.147.01.287.022.422.034.217.02.42.039.613.039.77 0 1.54-.049 2.262-.361.89-.385 1.42-1.252 1.371-2.262-.024-.963-.457-1.66-1.371-1.998-1.083-.409-2.19-.337-3.297-.168zm.746 4.211v-3.754a4.146 4.146 0 011.804 0c.77.217 1.228.698 1.348 1.492.096.794-.24 1.612-.914 1.973-.698.385-1.444.434-2.238.29zm27.266-1.804c.024 1.468 1.059 2.43 2.575 2.43 1.516 0 2.502-.842 2.647-2.334.12-1.18-.53-2.262-1.733-2.575a5.021 5.021 0 00-1.035-.096c-1.444.048-2.478 1.13-2.454 2.575zm4.414-.487c.035.123.07.246.11.366-.072 1.444-1.203 2.359-2.455 1.95-.505-.145-.842-.458-1.059-.915-.336-.722-.288-1.444.073-2.118.313-.625.89-.89 1.564-.89.674.024 1.203.289 1.516.89.112.225.182.471.251.717zm68.355.51c.049 1.444 1.059 2.407 2.647 2.407.073 0 .241 0 .385-.024 1.276-.169 2.118-1.107 2.19-2.43.073-1.252-.722-2.263-1.925-2.503a3.492 3.492 0 00-.866-.048c-1.444.072-2.455 1.154-2.431 2.598zm4.415-.51c.035.123.069.246.109.366-.072 1.468-1.227 2.382-2.502 1.95a1.56 1.56 0 01-1.011-.891c-.337-.746-.313-1.468.096-2.166.674-1.155 2.407-1.131 3.056.024.113.225.182.47.252.717zm-64.527 2.821h.794c-.126-.267-.197-.55-.268-.827-.146-.573-.287-1.127-.887-1.484.05-.034.099-.065.144-.094.082-.053.154-.1.217-.146.12-.072.24-.169.337-.289.553-.674.216-1.612-.722-1.877-.819-.217-1.66-.168-2.503 0v4.717h.746V42.81c.08 0 .144-.007.203-.014.047-.005.09-.01.134-.01.938-.024 1.227.193 1.492 1.083.038.126.081.255.124.387.065.197.131.398.189.6zm-2.145-3.712c.006-.19.011-.38.003-.572a2.73 2.73 0 011.323 0c.434.12.674.385.698.746.024.385-.192.722-.625.843-.313.086-.626.11-.948.135-.124.01-.249.02-.376.033-.096-.418-.085-.803-.075-1.185zm22.046 3.712h.77c-.122-.266-.195-.54-.267-.808-.156-.583-.303-1.132-.912-1.478.041-.024.082-.046.123-.068.125-.067.243-.13.334-.221l.073-.072c.125-.122.256-.249.336-.41.337-.673-.072-1.443-.915-1.66-.794-.217-1.612-.168-2.454 0v4.717h.746v-2.022c1.227-.168 1.564.048 1.877 1.131.048.145.096.295.144.445l.145.446zm-1.973-2.591l-.169-.008c0-.578 0-1.107.024-1.685a2.29 2.29 0 011.444.048.75.75 0 01.529.746c0 .361-.192.626-.505.77-.41.173-.839.152-1.323.129z" fill="#000"/><path d="M120.153 44.35c-.024.217-.024.361-.024.505h-3.152v-4.764h3.008c0 .144.024.264.024.457h-2.286v1.54h2.141v.53h-2.141v1.756c.794-.024 1.564-.024 2.43-.024z" fill="#000"/><path fill-rule="evenodd" clip-rule="evenodd" d="M45.892 44.832h.77c-.65-1.637-1.276-3.2-1.901-4.765h-.915c-.227.577-.46 1.15-.694 1.725-.411 1.009-.824 2.021-1.207 3.064h.722c.121-.318.252-.636.38-.948l.222-.544h2.021c.113.296.235.585.354.87.085.2.168.399.248.598zm-.966-2.502l.196.504h-1.66l.164-.433c.087-.226.17-.442.244-.65.12-.337.241-.673.41-1.107.222.594.43 1.13.646 1.686z" fill="#000"/><path d="M60.378 40.067h2.983c.025.144.025.265.049.481H61.1v1.492c.673.096 1.395 0 2.141.048 0 .169.024.313.024.506H61.1v1.756h2.431v.482h-3.177c.025-1.589.025-3.177.025-4.765z" fill="#000"/><path fill-rule="evenodd" clip-rule="evenodd" d="M101.431 44.832v-1.853c.061 0 .121.002.18.003.171.005.332.009.494-.027l.296-.06c.365-.072.735-.145 1.075-.277.458-.193.674-.602.698-1.107.048-.722-.385-1.251-1.203-1.42-.746-.168-1.492-.12-2.262.024v4.717h.722zm0-2.479v-1.877c.148.008.29.013.427.018.306.01.589.021.872.054.434.073.698.385.722.794.024.386-.192.747-.553.939-.433.24-.939.265-1.468.072z" fill="#000"/><path d="M72.53 44.856h-.698c-.12-.433-.168-3.538-.072-4.717.385-.144 2.286-.168 3.032-.048 0 .12.024.24.024.457H72.53v1.613h2.07v.53h-2.07v2.165zm66.009-.169c.096-.24.144-.36.193-.505.072 0 .144 0 .192.024.505.192 1.035.313 1.588.168.217-.072.458-.192.626-.36.265-.29.168-.77-.193-1.011-.24-.145-.529-.24-.77-.361-.288-.12-.577-.217-.842-.361-.385-.217-.65-.554-.625-1.035.024-.505.288-.818.721-1.035.746-.36 1.516-.313 2.359-.024-.048.193-.097.337-.145.482-.288-.073-.529-.145-.77-.169a2.95 2.95 0 00-.794.048c-.337.072-.577.265-.601.602-.049.36.192.577.481.698.216.096.433.168.65.264.264.12.529.217.794.337.433.24.698.626.673 1.131-.024.53-.336.89-.794 1.107-.457.217-.962.289-1.468.217-.433-.024-.818-.12-1.275-.217zm-9.963-.361c.024.072.072.193.12.385-.216.048-.409.12-.625.145-.722.12-1.42.096-2.094-.145-.914-.313-1.444-.938-1.564-1.877-.12-.938.168-1.757.987-2.31 1.01-.698 2.117-.674 3.296-.385-.048.192-.072.313-.096.385-.65 0-1.227-.072-1.805.024-1.083.169-1.636.939-1.588 2.045.048.987.674 1.66 1.709 1.757.481.072 1.01 0 1.66-.024zm4.668-4.259h.674v4.765h-.674v-4.765zm14.103 4.764h-.65c-.12-.409-.144-3.994-.024-4.764.096-.024.216-.048.313-.048.096 0 .192.024.337.024.072 1.612.024 3.176.024 4.788z" fill="#000"/><path fill-rule="evenodd" clip-rule="evenodd" d="M199.974 4.281c-.122-.384-.242-.767-.649-1.032a6.27 6.27 0 01.112-.08c.122-.086.234-.164.345-.257.385-.361.337-.89-.096-1.18a1.198 1.198 0 00-.481-.192 5.326 5.326 0 00-1.853.024V4.79c.096-.012.186-.018.276-.024.091-.006.181-.012.277-.024v-.674c.012-.108.018-.217.024-.325.006-.108.012-.217.024-.325.987-.12 1.155 0 1.444.866 0 .073.024.12.048.169.145.385.169.385.674.24-.057-.133-.101-.272-.145-.41zm-.89-1.345c-.361.168-.746.168-1.179.096V1.925c.385-.192.794-.144 1.155.024.169.072.313.289.361.457.072.241-.12.434-.337.53z" fill="#000"/></svg>