<svg width="131" height="30" fill="none" xmlns="http://www.w3.org/2000/svg"><path fill-rule="evenodd" clip-rule="evenodd" d="M120.273 15.038V9.15h-1.421v3.415a2.475 2.475 0 00-2.061-.958c-1.83 0-3.273 1.435-3.273 3.429 0 1.993 1.434 3.428 3.273 3.428a2.475 2.475 0 002.061-.958v.791h1.421v-3.259zm-42.352-3.264h2.321l-.002 1.298h-2.321v2.95c0 .655.234 1.092.943 1.092a2.625 2.625 0 001.258-.369l.409 1.217a3.338 3.338 0 01-1.776.504c-1.68 0-2.266-.902-2.266-2.419v-2.975h-1.325v-1.298h1.325v-1.98h1.434v1.98zm-18.905 2.438v4.09h-1.437V14.67c0-1.107-.491-1.72-1.435-1.72-.943 0-1.598.6-1.598 1.734v3.619H53.12V14.67c0-1.107-.45-1.72-1.421-1.72-.971 0-1.598.6-1.598 1.734v3.619h-1.435v-6.535h1.42v.818a2.16 2.16 0 011.91-.97 2.397 2.397 0 012.157 1.161 2.528 2.528 0 012.294-1.161c1.584.013 2.569 1.052 2.569 2.596zM92.36 11.61a1.926 1.926 0 00-1.721.957v-.793h-1.407v6.529h1.42v-3.66c0-1.091.464-1.68 1.394-1.68.304-.005.606.051.89.163l.435-1.339a3.038 3.038 0 00-1.011-.177zm-20.984 0a4.882 4.882 0 012.665.682l-.611 1.15a4.207 4.207 0 00-2.035-.558c-.78 0-1.243.286-1.243.763 0 .437.493.56 1.107.641l.668.096c1.418.204 2.28.804 2.28 1.952 0 1.241-1.094 2.13-2.978 2.13a4.709 4.709 0 01-2.828-.848l.646-1.104a3.48 3.48 0 002.182.681c.97 0 1.489-.289 1.489-.793 0-.368-.371-.573-1.148-.682l-.668-.095c-1.462-.205-2.253-.86-2.253-1.926 0-1.295 1.074-2.089 2.727-2.089zm40.715 0a1.924 1.924 0 00-1.72.957v-.793h-1.408v6.529h1.421v-3.66c0-1.091.464-1.68 1.394-1.68.304-.005.606.051.889.163l.436-1.339a3.034 3.034 0 00-1.012-.177zm-14.814 6.856c-2.103 0-3.483-1.448-3.483-3.428v-.005c0-1.98 1.38-3.428 3.483-3.428a3.42 3.42 0 012.348.78l-.682 1.148a2.87 2.87 0 00-1.707-.587c-1.132.014-1.966.835-1.966 2.09 0 1.254.832 2.089 1.966 2.089a2.87 2.87 0 001.707-.587l.682 1.148a3.42 3.42 0 01-2.348.78zm9.821-3.428v-3.273h-1.421v.794a2.477 2.477 0 00-2.062-.957c-1.83 0-3.273 1.434-3.273 3.428s1.435 3.428 3.273 3.428a2.477 2.477 0 002.062-.957v.79h1.421v-3.253zm-3.306-2.089c-1.23 0-1.98.941-1.98 2.09 0 1.145.75 2.088 1.98 2.088 1.176 0 1.967-.902 1.967-2.089 0-1.186-.791-2.089-1.967-2.089zM84.669 11.61c-1.91 0-3.251 1.394-3.251 3.428 0 2.076 1.393 3.428 3.346 3.428a3.969 3.969 0 002.678-.916l-.695-1.053a3.111 3.111 0 01-1.91.682c-.916 0-1.747-.423-1.952-1.598h4.85c.013-.177.026-.355.026-.545 0-2.035-1.27-3.429-3.1-3.429l.008.003zm1.625 2.856c-.15-1.012-.736-1.584-1.651-1.585h.001-.003.002c-1.011 0-1.583.641-1.733 1.585h3.384zm35.804 3.267a.417.417 0 00-.161-.033h.003a.415.415 0 00-.399.576.423.423 0 00.393.253.412.412 0 00.297-.123.4.4 0 000-.584.417.417 0 00-.133-.09zm-.159.703a.313.313 0 00.222-.092.325.325 0 00-.101-.527.316.316 0 00-.126-.024.325.325 0 00-.232.55.324.324 0 00.237.093zm0 0h-.005.006-.001zm.134-.485a.172.172 0 00-.114-.033l-.178.003v.382h.082v-.145h.038l.118.145h.098l-.126-.145a.15.15 0 00.09-.038.103.103 0 00.033-.08.106.106 0 00-.041-.09zm-.21.038v.104h.096a.094.094 0 00.052 0 .047.047 0 00.019-.038.047.047 0 00-.019-.039.094.094 0 00-.052 0l-.096-.027zm-4.89-5.04c-1.23 0-1.98.941-1.98 2.09 0 1.145.75 2.088 1.98 2.088 1.176 0 1.967-.902 1.967-2.089 0-1.186-.791-2.089-1.967-2.089zm-49.952 2.09v-3.274H65.6v.794a2.477 2.477 0 00-2.054-.949c-1.83 0-3.273 1.435-3.273 3.428 0 1.994 1.435 3.428 3.273 3.428a2.476 2.476 0 002.062-.957v.791h1.42l-.007-3.262zm-3.306-2.09c-1.23 0-1.98.941-1.98 2.09 0 1.147.75 2.088 1.98 2.088 1.176 0 1.966-.902 1.966-2.089 0-1.186-.79-2.089-1.966-2.089z" fill="#231F20"/><path fill="#FF5F00" d="M21.943 7.276h8.591v15.439h-8.591z"/><path d="M22.488 15a9.802 9.802 0 013.75-7.718 9.818 9.818 0 100 15.439A9.802 9.802 0 0122.488 15z" fill="#EB001B"/><path d="M42.125 15a9.818 9.818 0 01-15.887 7.718 9.818 9.818 0 000-15.439A9.818 9.818 0 0142.125 15z" fill="#F79E1B"/><path fill-rule="evenodd" clip-rule="evenodd" d="M41.811 20.697v.382l-.07.003v-.29l-.107.249h-.074l-.106-.248v.286h-.057v-.382h.1l.115.273.115-.273h.084zm-.63.066v.316l-.063.003v-.317h-.128V20.7h.32v.063h-.129z" fill="#F79E1B"/></svg>