<svg width="19" height="20" fill="none" xmlns="http://www.w3.org/2000/svg"><path d="M16.872 13.92c-1.232-1.033-2.481-1.659-3.698-.627l-.726.623c-.532.453-1.52 2.568-5.34-1.743-3.82-4.306-1.547-4.977-1.014-5.425l.73-.625c1.21-1.034.753-2.336-.12-3.676l-.526-.812C5.3.298 4.346-.58 3.133.453l-.655.562A6.026 6.026 0 00.079 5.01c-.438 2.84.943 6.091 4.105 9.659 3.159 3.569 6.251 5.362 9.18 5.33 2.435-.025 3.905-1.307 4.365-1.773l.658-.562c1.21-1.032.458-2.083-.774-3.119l-.741-.625z" fill="#41C59F"/></svg>