<svg width="37" height="32" fill="none" xmlns="http://www.w3.org/2000/svg"><path d="M18.067 9.697v-.97L4.006 6.595 4.2 10.57l13.77 3.103.097-3.976zM1.098 6.206l.194 3.685 2.424.582-.194-3.88-2.424-.387zm17.357 7.564l4.267.97.194-5.334-4.364-.678v.97l-.097 4.072zM3.62 4.751l-2.134.97 2.23.388 2.23-1.164-2.326-.194zM21.267 6.69l-2.328 1.65 3.976.581 2.618-1.842-4.072-.388h-.194zm-.581-.096L6.722 5.042l-2.23 1.164 13.77 2.036 2.424-1.648zm9.116-1.454v.484l-6.206.776 2.618.291 8.92-1.067-4.072-.484c.097-.194.194-.68-.097-.873v-.388h.194V.776h-.97v3.103h.194v.388c-.097.194-.097.582 0 .679L15.16 3.685l-9.794.679 1.358.194 8.34-.68L29.801 5.14z" fill="#41C59F"/><path d="M27.473 5.43L15.06 4.364l-5.818.485L21.46 6.206l6.012-.776zm-9.018 8.825l-.29 9.115-14.158-5.14v-.194l-.291-7.079-2.327-.484.581 11.345 2.425 1.164.388-.097.678-1.94.097-.387 1.649.678 9.018 3.491 1.552 4.364 4.363 1.842.582-15.709-4.267-.97z" fill="#41C59F"/><path d="M4.492 17.843L17.68 22.69l.29-8.533-13.769-3.103.291 6.788zm18.715-1.746l1.551-.485-.097 5.43-1.745.776-.291 8.824 2.91-1.842 1.55-4.267 2.91-1.454v1.066s-.097 0-.097.097c0 .194.097.097.097.194v.582c0 .097.097.097.194.097s.194 0 .194-.097l.194-.582.096-.097.098-1.066.484.097.388 1.066.388.097 2.327-1.454 1.26-11.637-12.411 3.685v.97z" fill="#41C59F"/><path d="M23.208 16.485l-.194 4.945 1.26-.581.097-4.752-1.163.388zm3.005-9.309l-2.812 2.036-.194 5.527 12.412-3.685.485-5.139-9.89 1.26z" fill="#41C59F"/></svg>