<svg width="20" height="20" fill="none" xmlns="http://www.w3.org/2000/svg"><path d="M20 10c0 5.523-4.477 10-10 10S0 15.523 0 10 4.477 0 10 0s10 4.477 10 10z" fill="#41C59F"/><path fill-rule="evenodd" clip-rule="evenodd" d="M13.867 6.86a3.784 3.784 0 01-1.514 3.027 6.5 6.5 0 014.215 6.076h-1.172a5.322 5.322 0 00-5.317-5.316 5.322 5.322 0 00-5.316 5.316H3.59a6.499 6.499 0 014.215-6.076A3.784 3.784 0 016.292 6.86a3.791 3.791 0 013.787-3.787 3.791 3.791 0 013.787 3.787zm-3.788-2.615A2.618 2.618 0 007.464 6.86a2.618 2.618 0 002.615 2.615 2.618 2.618 0 002.615-2.615 2.618 2.618 0 00-2.615-2.615z" fill="#fff"/></svg>