<svg width="62" height="20" fill="none" xmlns="http://www.w3.org/2000/svg"><path d="M26.75 19.69h-5L24.878.35h5l-3.127 19.34zM44.878.823C43.89.433 42.327 0 40.392 0c-4.938 0-8.416 2.633-8.437 6.398-.04 2.778 2.49 4.32 4.383 5.247 1.935.947 2.592 1.564 2.592 2.408-.02 1.295-1.563 1.893-3.003 1.893-1.996 0-3.066-.308-4.692-1.03l-.658-.308-.7 4.341c1.173.535 3.334 1.009 5.577 1.03 5.247 0 8.663-2.593 8.704-6.605.02-2.202-1.317-3.889-4.198-5.267-1.749-.885-2.82-1.482-2.82-2.387.02-.823.906-1.666 2.88-1.666 1.626-.042 2.82.35 3.725.74l.453.206.68-4.177z" fill="#00579F"/><path fill-rule="evenodd" clip-rule="evenodd" d="M53.829.35h3.868l4.034 19.34H57.1s-.453-2.222-.597-2.901h-6.42l-1.05 2.901h-5.247l7.428-17.735C51.73.7 52.635.351 53.829.351zm-.309 7.078s-1.584 4.3-1.996 5.411h4.157c-.206-.967-1.153-5.596-1.153-5.596l-.35-1.667c-.147.43-.36 1.02-.503 1.417a14.8 14.8 0 00-.155.435z" fill="#00579F"/><path d="M17.573.35l-4.898 13.19-.535-2.675c-.905-3.086-3.745-6.44-6.913-8.107L9.712 19.67H15L22.86.35h-5.287z" fill="#00579F"/><path d="M8.128.35H.082L0 .742c6.276 1.605 10.433 5.474 12.14 10.124l-1.749-8.889C10.103.741 9.218.391 8.128.351z" fill="#FAA61A"/></svg>