<svg width="22" height="25" fill="none" xmlns="http://www.w3.org/2000/svg"><path d="M8.657 11.275a4.78 4.78 0 001.47-3.45c0-.492-.15-1.043-.39-1.622-.27-.609-.63-1.218-1.05-1.855 0-.03-.03-.03-.03-.058-.87-1.276-2.01-2.522-2.97-3.595l-.6-.666-.6.666C2.625 2.782.044 5.652.044 7.825c0 1.334.57 2.552 1.47 3.45.9.87 2.161 1.42 3.571 1.42 1.38 0 2.641-.55 3.571-1.42z" fill="#41C59F"/><path d="M12.5 1.45c-.45.521-.96 1.072-1.471 1.68l-.78.87c.36.55.66 1.101.9 1.652.33.754.51 1.478.51 2.174 0 1.74-.72 3.333-1.92 4.493-1.2 1.16-2.821 1.855-4.652 1.855-.42 0-.81-.03-1.2-.116-.15-.03-.27-.058-.42-.087l-.18.696c-.09.434-.15.84-.15 1.275 0 2.493 1.05 4.754 2.73 6.406C7.578 24 9.92 24.985 12.5 24.985a9.618 9.618 0 006.632-2.637 8.8 8.8 0 002.731-6.406c0-3.971-4.591-9.072-7.892-12.783a32.43 32.43 0 00-1.47-1.71z" fill="#41C59F"/></svg>