<svg width="30" height="17" viewBox="0 0 30 17" fill="none" xmlns="http://www.w3.org/2000/svg">
<path id="Shape" d="M29.9827 8.32004C29.9744 8.28056 29.9613 8.24411 29.9481 8.20645C29.9416 8.18762 29.938 8.16818 29.9315 8.14995C29.9142 8.10804 29.8921 8.06916 29.8689 8.03089C29.8617 8.01874 29.857 8.00538 29.8492 7.99323C29.8164 7.94342 29.7795 7.89725 29.7378 7.85473L22.2923 0.266978C21.943 -0.0889925 21.3774 -0.0889925 21.0281 0.266978C20.6789 0.62234 20.6789 1.20003 21.0281 1.55539L26.9478 7.58866H0.894028C0.400524 7.58866 0 7.99627 0 8.49985C0 9.00343 0.400524 9.41103 0.894028 9.41103H26.9478L21.0269 15.4449C20.6777 15.8003 20.6777 16.3774 21.0269 16.7333C21.2016 16.9113 21.4304 17 21.6593 17C21.8882 17 22.1171 16.9113 22.2917 16.7333L29.7378 9.14497C29.7789 9.10305 29.8164 9.05628 29.8492 9.00647C29.8576 8.99432 29.8617 8.98095 29.8689 8.96881C29.8921 8.93054 29.9142 8.89166 29.9315 8.84974C29.9386 8.83152 29.9422 8.81147 29.9481 8.79325C29.9607 8.75559 29.9744 8.71914 29.9827 8.67966C29.9946 8.62073 30 8.56059 30 8.49985C30 8.4391 29.994 8.37836 29.9827 8.32004Z" fill="black"/>
</svg>
