<svg width="159" height="20" viewBox="0 0 159 20" fill="none" xmlns="http://www.w3.org/2000/svg">
<path d="M9.12445 6.6335C9.12445 8.02189 7.99877 9.14715 6.60992 9.14715C5.22102 9.14715 4.0957 8.02189 4.0957 6.6335C4.0957 5.24543 5.22102 4.12012 6.60992 4.12012C7.99877 4.12012 9.12445 5.24543 9.12445 6.6335Z" fill="#808080"/>
<path d="M15.9116 6.63343C15.9116 8.02182 14.786 9.14708 13.3969 9.14708C12.0083 9.14708 10.8828 8.02182 10.8828 6.63343C10.8828 5.24531 12.0083 4.12 13.3969 4.12C14.786 4.12 15.9116 5.24531 15.9116 6.63343Z" fill="#808080"/>
<path d="M9.12445 13.3664C9.12445 14.7547 7.99877 15.88 6.60992 15.88C5.22102 15.88 4.0957 14.7547 4.0957 13.3664C4.0957 11.9783 5.22102 10.853 6.60992 10.853C7.99877 10.853 9.12445 11.9783 9.12445 13.3664Z" fill="#808080"/>
<path d="M15.9116 13.3664C15.9116 14.7547 14.786 15.88 13.3969 15.88C12.0084 15.88 10.8828 14.7547 10.8828 13.3664C10.8828 11.9783 12.0084 10.853 13.3969 10.853C14.786 10.853 15.9116 11.9783 15.9116 13.3664Z" fill="#808080"/>
<path fill-rule="evenodd" clip-rule="evenodd" d="M0 10C0 15.5141 4.48747 20 10.0033 20C15.5191 20 20.0066 15.5141 20.0066 10C20.0066 4.48599 15.5191 0 10.0033 0C4.48747 0 0 4.48599 0 10ZM0.416805 10C0.416805 4.71573 4.71734 0.416667 10.0033 0.416667C15.2894 0.416667 19.5898 4.71573 19.5898 10C19.5898 15.2843 15.2894 19.5833 10.0033 19.5833C4.71734 19.5833 0.416805 15.2843 0.416805 10Z" fill="#808080"/>
<path fill-rule="evenodd" clip-rule="evenodd" d="M98.0468 11.0625V11.018C98.0468 10.4597 98.1219 9.95854 98.2721 9.51444C98.4306 9.05764 98.6454 8.68756 98.9165 8.40418C99.1876 8.1208 99.4953 7.90403 99.8394 7.75388C100.184 7.60373 100.552 7.52866 100.944 7.52866C101.661 7.52866 102.174 7.78455 102.483 8.29633V5.77128C102.483 5.36947 102.411 5.07869 102.267 4.89893C102.123 4.71917 101.87 4.6293 101.507 4.6293V4.35649C101.778 4.38187 102.043 4.39456 102.301 4.39456C102.852 4.39456 103.296 4.33323 103.634 4.21057V12.9848C103.634 13.3866 103.706 13.6774 103.85 13.8571C103.994 14.0369 104.247 14.1268 104.61 14.1268V14.3996C104.339 14.3742 104.074 14.3615 103.816 14.3615C103.265 14.3615 102.821 14.4228 102.483 14.5455V13.3908C102.162 14.186 101.555 14.5836 100.662 14.5836C99.8404 14.5836 99.1981 14.2854 98.7351 13.689C98.2721 13.0926 98.0426 12.2171 98.0468 11.0625ZM43.6436 5.28911C43.6436 5.06494 43.7239 4.87038 43.8845 4.70543C44.0451 4.54048 44.238 4.458 44.4632 4.458C44.6843 4.458 44.8762 4.54048 45.0389 4.70543C45.2016 4.87038 45.2829 5.06494 45.2829 5.28911C45.2829 5.51751 45.2016 5.71312 45.0389 5.87596C44.8762 6.0388 44.6843 6.12022 44.4632 6.12022C44.238 6.12022 44.0451 6.0388 43.8845 5.87596C43.7239 5.71312 43.6436 5.51751 43.6436 5.28911ZM29.4844 14.3996V14.1395C29.793 14.1268 30.0152 14.0929 30.1507 14.038C30.2863 13.983 30.3822 13.8815 30.4385 13.7334C30.4949 13.5854 30.523 13.3485 30.523 13.0229V6.57701C30.523 6.25133 30.4949 6.01448 30.4385 5.86644C30.3822 5.71841 30.2863 5.6169 30.1507 5.56192C30.0152 5.50693 29.793 5.47309 29.4844 5.46041V5.20029C29.8389 5.22567 30.3603 5.23835 31.0486 5.23835C31.3573 5.23835 31.741 5.23412 32.1998 5.22567C32.6587 5.21721 32.9194 5.21298 32.9819 5.21298C33.8537 5.21298 34.5222 5.39908 34.9873 5.77128C35.4524 6.14348 35.6849 6.63834 35.6849 7.25585C35.6849 7.75494 35.5295 8.20327 35.2188 8.60085C34.908 8.99843 34.4148 9.30296 33.739 9.51444V9.53982C34.2271 9.60749 34.6463 9.71746 34.9966 9.86972C35.347 10.022 35.6182 10.206 35.81 10.4217C36.0019 10.6374 36.1406 10.8647 36.2261 11.1037C36.3116 11.3427 36.3544 11.6017 36.3544 11.8809C36.3544 12.6295 36.078 13.2364 35.5254 13.7017C34.9727 14.167 34.2229 14.3996 33.276 14.3996C33.2051 14.3996 32.9215 14.3932 32.4251 14.3805C31.9287 14.3679 31.4782 14.3615 31.0736 14.3615C30.3728 14.3615 29.8431 14.3742 29.4844 14.3996ZM31.7118 13.0229C31.7118 13.4754 31.7723 13.7683 31.8933 13.9015C32.0142 14.0348 32.2749 14.1014 32.6754 14.1014C34.2729 14.1014 35.0717 13.3422 35.0717 11.8238C35.0717 11.1428 34.8892 10.6247 34.5243 10.2694C34.1593 9.91413 33.5805 9.73649 32.788 9.73649H31.7118V13.0229ZM32.5753 9.51444H31.7118V6.57701C31.7118 6.12444 31.7733 5.82521 31.8964 5.67929C32.0194 5.53337 32.2749 5.46041 32.6628 5.46041C33.2927 5.46041 33.7495 5.62007 34.0331 5.9394C34.3167 6.25874 34.4586 6.74407 34.4586 7.39543C34.4586 7.69996 34.4304 7.97065 34.3741 8.2075C34.3178 8.44436 34.2218 8.66535 34.0863 8.87049C33.9507 9.07562 33.7557 9.23423 33.5013 9.34631C33.2468 9.4584 32.9382 9.51444 32.5753 9.51444ZM37.2992 14.3996V14.1268C37.6579 14.1268 37.9102 14.0602 38.0562 13.9269C38.2022 13.7937 38.2752 13.5494 38.2752 13.1942V9.12743C38.2752 8.72562 38.2033 8.43379 38.0594 8.25191C37.9155 8.07004 37.6621 7.97911 37.2992 7.97911V7.7063C37.5661 7.73168 37.831 7.74437 38.0938 7.74437C38.636 7.74437 39.0803 7.68515 39.4265 7.56673V9.19088C39.5808 8.75946 39.8259 8.37457 40.1617 8.03621C40.4975 7.69784 40.8718 7.52866 41.2848 7.52866C41.6268 7.52866 41.9073 7.62805 42.1263 7.82684C42.3453 8.02563 42.4548 8.26672 42.4548 8.5501C42.4548 8.7785 42.3881 8.972 42.2546 9.13061C42.1211 9.28922 41.9438 9.36852 41.7228 9.36852C41.535 9.36852 41.3745 9.30825 41.241 9.18771C41.1075 9.06716 41.0408 8.90327 41.0408 8.69602C41.0408 8.41264 41.1867 8.1779 41.4787 7.9918C41.4203 7.90721 41.3307 7.86491 41.2097 7.86491C40.9552 7.86491 40.7123 7.94633 40.4808 8.10917C40.2493 8.27201 40.0595 8.47714 39.9114 8.72457C39.7633 8.972 39.6455 9.23634 39.5579 9.51761C39.4703 9.79888 39.4265 10.0622 39.4265 10.3075V13.0609C39.4265 13.4627 39.5391 13.7408 39.7644 13.8952C39.9896 14.0496 40.3296 14.1268 40.7842 14.1268V14.3996C39.7331 14.3657 39.0761 14.3488 38.8133 14.3488C38.5881 14.3488 38.0834 14.3657 37.2992 14.3996ZM42.9991 14.1268V14.3996C43.7833 14.3657 44.3006 14.3488 44.5508 14.3488C44.8011 14.3488 45.3183 14.3657 46.1025 14.3996V14.1268C45.7438 14.1268 45.4915 14.0602 45.3455 13.9269C45.1995 13.7937 45.1265 13.5494 45.1265 13.1942V7.56673C44.7803 7.68515 44.336 7.74437 43.7938 7.74437C43.531 7.74437 43.2661 7.73168 42.9991 7.7063V7.97911C43.362 7.97911 43.6154 8.07004 43.7594 8.25192C43.9033 8.43379 43.9752 8.72562 43.9752 9.12743V13.1942C43.9752 13.5494 43.9022 13.7937 43.7562 13.9269C43.6102 14.0602 43.3579 14.1268 42.9991 14.1268ZM46.7533 14.1268V14.3996C47.5374 14.3657 48.0505 14.3488 48.2924 14.3488C48.5344 14.3488 49.0141 14.3657 49.7315 14.3996V14.1268C49.4145 14.1268 49.1934 14.0602 49.0683 13.9269C48.9431 13.7937 48.8806 13.5494 48.8806 13.1942V10.3075C48.8806 9.63498 49.0474 9.07245 49.3811 8.61989C49.7148 8.16732 50.1465 7.94104 50.6763 7.94104C50.8557 7.94104 51.01 7.96853 51.1393 8.02352C51.2686 8.0785 51.3698 8.14829 51.4428 8.23288C51.5157 8.31747 51.5731 8.4285 51.6148 8.56596C51.6565 8.70342 51.6836 8.83771 51.6962 8.96883C51.7087 9.09994 51.7149 9.25643 51.7149 9.43831V13.1942C51.7149 13.5494 51.6524 13.7937 51.5272 13.9269C51.4021 14.0602 51.1831 14.1268 50.8703 14.1268V14.3996C51.5877 14.3657 52.0653 14.3488 52.3031 14.3488C52.545 14.3488 53.0581 14.3657 53.8422 14.3996V14.1268C53.4835 14.1268 53.2312 14.0602 53.0852 13.9269C52.9392 13.7937 52.8662 13.5494 52.8662 13.1942V9.7238C52.8662 9.28393 52.8318 8.93393 52.7629 8.67381C52.6941 8.41369 52.5805 8.19482 52.4219 8.01717C52.1133 7.6915 51.6607 7.52866 51.0642 7.52866C50.5845 7.52866 50.1538 7.65237 49.7722 7.8998C49.3905 8.14723 49.0933 8.54587 48.8806 9.09571V7.56673C48.5344 7.68515 48.0901 7.74437 47.5479 7.74437C47.2851 7.74437 47.0202 7.73168 46.7533 7.7063V7.97911C47.1161 7.97911 47.3695 8.07004 47.5135 8.25191C47.6574 8.43379 47.7293 8.72562 47.7293 9.12743V13.1942C47.7293 13.5494 47.6563 13.7937 47.5103 13.9269C47.3643 14.0602 47.112 14.1268 46.7533 14.1268ZM54.2802 15.6494C54.2802 15.3533 54.4335 15.0679 54.7401 14.7929C55.0467 14.518 55.4294 14.2748 55.8882 14.0633H55.8444C55.7068 14.0633 55.5743 14.0517 55.4471 14.0284C55.3199 14.0052 55.1843 13.9618 55.0404 13.8984C54.8965 13.8349 54.7808 13.7324 54.6932 13.5907C54.6056 13.449 54.5618 13.2766 54.5618 13.0736C54.5618 12.7775 54.6838 12.4963 54.9278 12.2298C55.1718 11.9634 55.5837 11.6969 56.1635 11.4304C55.371 11.1174 54.9747 10.4999 54.9747 9.57788C54.9747 9.11686 55.0801 8.72986 55.2907 8.41687C55.5014 8.10388 55.7798 7.8776 56.126 7.73802C56.4722 7.59845 56.8768 7.52866 57.3398 7.52866C57.6693 7.52866 57.9718 7.56673 58.2471 7.64286C58.3347 7.16069 58.4848 6.7758 58.6976 6.48819C58.927 6.20058 59.219 6.05677 59.5735 6.05677C59.7862 6.05677 59.952 6.12022 60.0709 6.2471C60.1898 6.37399 60.2492 6.53683 60.2492 6.73562C60.2492 6.91326 60.1909 7.06129 60.0741 7.17972C59.9573 7.29815 59.8113 7.35736 59.6361 7.35736C59.4192 7.35736 59.2628 7.29075 59.1668 7.15752C59.0709 7.02428 59 6.8181 58.9541 6.53894C58.8289 6.65314 58.7142 6.86462 58.61 7.17338C58.5432 7.40177 58.4994 7.58153 58.4786 7.71265C59.3003 8.02141 59.7112 8.64314 59.7112 9.57788C59.7112 10.2631 59.4932 10.777 59.0573 11.1196C58.6214 11.4622 58.0489 11.6334 57.3398 11.6334C56.9853 11.6334 56.6703 11.5933 56.395 11.5129C56.0488 11.699 55.7829 11.8714 55.5973 12.03C55.4117 12.1886 55.3189 12.3588 55.3189 12.5407C55.3189 12.8283 55.5232 12.9721 55.932 12.9721H58.9416C59.3879 12.9721 59.7497 13.0673 60.0271 13.2576C60.3045 13.4479 60.4432 13.7546 60.4432 14.1775C60.4432 14.4144 60.3994 14.6544 60.3118 14.8976C60.2242 15.1408 60.0845 15.3798 59.8926 15.6145C59.7007 15.8493 59.4682 16.0565 59.195 16.2363C58.9218 16.416 58.5839 16.5619 58.1814 16.674C57.7788 16.7861 57.3377 16.8422 56.858 16.8422C56.4117 16.8422 55.9977 16.7988 55.6161 16.7121C55.2344 16.6254 54.9163 16.49 54.6619 16.3061C54.4074 16.1221 54.2802 15.9032 54.2802 15.6494ZM55.6286 16.0872C55.4304 15.8926 55.3314 15.6558 55.3314 15.3766C55.3314 15.1271 55.4085 14.8807 55.5629 14.6375C55.7172 14.3943 55.9299 14.2029 56.2011 14.0633H58.5849C58.9603 14.0633 59.2169 14.1204 59.3545 14.2346C59.4922 14.3488 59.561 14.5328 59.561 14.7866C59.561 15.0869 59.489 15.3576 59.3451 15.5987C59.2012 15.8397 59.0135 16.0322 58.782 16.176C58.5505 16.3198 58.2992 16.4298 58.0281 16.5059C57.7569 16.582 57.4816 16.6201 57.2022 16.6201C56.8977 16.6201 56.6088 16.5799 56.3356 16.4996C56.0624 16.4192 55.8267 16.2817 55.6286 16.0872ZM56.176 9.57788C56.176 10.2377 56.2751 10.7061 56.4732 10.9832C56.6714 11.2602 56.9602 11.3987 57.3398 11.3987C57.7236 11.3987 58.0145 11.2612 58.2126 10.9863C58.4108 10.7114 58.5098 10.2419 58.5098 9.57788C58.5098 8.91384 58.4108 8.44436 58.2126 8.16944C58.0145 7.89452 57.7236 7.75706 57.3398 7.75706C56.9602 7.75706 56.6714 7.89557 56.4732 8.17261C56.2751 8.44965 56.176 8.91807 56.176 9.57788ZM63.8156 7.7063V7.97911C64.1577 7.97911 64.4476 8.22231 64.6853 8.70871L67.0129 14.3805L66.5561 15.5669C66.3017 16.2437 65.9388 16.582 65.4675 16.582C65.4341 16.582 65.4091 16.5778 65.3924 16.5693C65.6218 16.4382 65.7365 16.2437 65.7365 15.9857C65.7365 15.7911 65.675 15.641 65.5519 15.5352C65.4289 15.4295 65.2735 15.3766 65.0858 15.3766C64.8731 15.3766 64.7062 15.439 64.5852 15.5638C64.4643 15.6885 64.4038 15.8545 64.4038 16.0618C64.4038 16.3071 64.4851 16.4985 64.6478 16.636C64.8105 16.7734 65.019 16.8421 65.2735 16.8421C65.699 16.8421 66.0327 16.7301 66.2746 16.5059C66.479 16.324 66.6625 16.0195 66.8252 15.5923L67.2632 14.463L69.3655 8.88C69.4823 8.56279 69.6074 8.33651 69.7409 8.20116C69.8744 8.06581 70.0266 7.98757 70.1976 7.96642V7.7063C69.9307 7.73168 69.6053 7.74437 69.2216 7.74437C68.9546 7.74437 68.5959 7.73168 68.1454 7.7063V7.96642C68.4791 7.98757 68.722 8.04678 68.8743 8.14406C69.0266 8.24134 69.1027 8.39149 69.1027 8.59451C69.1027 8.73832 69.0568 8.9371 68.965 9.19088L67.551 12.9531L66.0055 9.07033C65.8971 8.79964 65.8429 8.58605 65.8429 8.42956C65.8429 8.34074 65.8606 8.26672 65.896 8.2075C65.9315 8.14829 65.9711 8.10388 66.0149 8.07427C66.0587 8.04467 66.1275 8.02246 66.2214 8.00766C66.3153 7.99285 66.3935 7.9844 66.456 7.98228C66.5186 7.98017 66.6125 7.97911 66.7376 7.97911V7.7063C65.9951 7.76129 65.4403 7.78878 65.0733 7.78878C64.6353 7.78878 64.2161 7.76129 63.8156 7.7063ZM70.9234 11.0625C70.9234 10.5718 70.9724 10.1298 71.0705 9.73649C71.1685 9.34314 71.304 9.01007 71.4771 8.73726C71.6503 8.46445 71.8599 8.23711 72.106 8.05524C72.3521 7.87337 72.618 7.74014 72.9037 7.65555C73.1894 7.57096 73.4991 7.52866 73.8328 7.52866C74.1665 7.52866 74.4763 7.57096 74.762 7.65555C75.0477 7.74014 75.3136 7.87337 75.5597 8.05524C75.8058 8.23711 76.0154 8.46445 76.1885 8.73726C76.3617 9.01007 76.4972 9.34314 76.5952 9.73649C76.6933 10.1298 76.7423 10.5718 76.7423 11.0625C76.7423 11.6673 76.6682 12.1991 76.5202 12.6581C76.3721 13.117 76.1635 13.4849 75.8945 13.762C75.6254 14.039 75.3188 14.2452 74.9747 14.3805C74.6306 14.5159 74.25 14.5836 73.8328 14.5836C73.4157 14.5836 73.0351 14.5159 72.691 14.3805C72.3468 14.2452 72.0403 14.039 71.7712 13.762C71.5022 13.4849 71.2936 13.117 71.1455 12.6581C70.9975 12.1991 70.9234 11.6673 70.9234 11.0625ZM72.6159 13.5272C72.3176 12.9964 72.1685 12.1748 72.1685 11.0625C72.1685 9.94585 72.3176 9.12109 72.6159 8.58817C72.9141 8.05524 73.3198 7.78878 73.8328 7.78878C74.3459 7.78878 74.7516 8.05524 75.0498 8.58817C75.348 9.12109 75.4972 9.94585 75.4972 11.0625C75.4972 12.1748 75.348 12.9964 75.0498 13.5272C74.7516 14.058 74.3459 14.3234 73.8328 14.3234C73.3198 14.3234 72.9141 14.058 72.6159 13.5272ZM77.5494 7.97911V7.7063C77.8164 7.73168 78.0812 7.74437 78.344 7.74437C78.8821 7.74437 79.3263 7.68515 79.6767 7.56673V12.6739C79.6767 12.8685 79.6809 13.026 79.6892 13.1466C79.6976 13.2671 79.7195 13.3993 79.7549 13.5431C79.7904 13.6869 79.8415 13.799 79.9082 13.8793C79.975 13.9597 80.0699 14.0274 80.1929 14.0824C80.316 14.1373 80.4672 14.1648 80.6465 14.1648C81.1429 14.1648 81.5559 13.9396 81.8854 13.4892C82.2149 13.0387 82.3797 12.4794 82.3797 11.8111V9.12743C82.3797 8.72562 82.3077 8.43379 82.1638 8.25192C82.0199 8.07004 81.7665 7.97911 81.4036 7.97911V7.7063C81.6706 7.73168 81.9355 7.74437 82.1982 7.74437C82.7405 7.74437 83.1847 7.68515 83.5309 7.56673V12.9975C83.5309 13.3993 83.6029 13.6901 83.7468 13.8698C83.8907 14.0496 84.1441 14.1395 84.507 14.1395V14.4123C84.2359 14.3869 83.971 14.3742 83.7124 14.3742C83.1618 14.3742 82.7176 14.4355 82.3797 14.5582V13.0229C82.1711 13.5558 81.8802 13.9491 81.5069 14.2029C81.1335 14.4567 80.7237 14.5836 80.2774 14.5836C79.7018 14.5836 79.2575 14.4186 78.9447 14.0887C78.661 13.7799 78.5192 13.2132 78.5192 12.3884V9.12743C78.5192 8.72562 78.4483 8.43379 78.3065 8.25192C78.1647 8.07004 77.9123 7.97911 77.5494 7.97911ZM85.1577 14.1268V14.3996C85.9419 14.3657 86.4466 14.3488 86.6719 14.3488C86.9347 14.3488 87.5916 14.3657 88.6428 14.3996V14.1268C88.1881 14.1268 87.8482 14.0496 87.6229 13.8952C87.3977 13.7408 87.285 13.4627 87.285 13.0609V10.3075C87.285 10.0622 87.3288 9.79888 87.4164 9.51761C87.504 9.23634 87.6219 8.972 87.77 8.72457C87.918 8.47714 88.1078 8.27201 88.3393 8.10917C88.5708 7.94633 88.8138 7.86491 89.0682 7.86491C89.1892 7.86491 89.2789 7.90721 89.3373 7.9918C89.0453 8.1779 88.8993 8.41264 88.8993 8.69602C88.8993 8.90327 88.966 9.06716 89.0995 9.18771C89.233 9.30825 89.3936 9.36852 89.5813 9.36852C89.8024 9.36852 89.9797 9.28922 90.1131 9.13061C90.2466 8.972 90.3134 8.7785 90.3134 8.5501C90.3134 8.26672 90.2039 8.02563 89.9849 7.82684C89.7659 7.62805 89.4854 7.52866 89.1433 7.52866C88.7304 7.52866 88.356 7.69784 88.0202 8.03621C87.6844 8.37457 87.4394 8.75946 87.285 9.19088V7.56673C86.9388 7.68515 86.4946 7.74437 85.9523 7.74437C85.6896 7.74437 85.4247 7.73168 85.1577 7.7063V7.97911C85.5206 7.97911 85.774 8.07004 85.9179 8.25191C86.0618 8.43379 86.1338 8.72562 86.1338 9.12743V13.1942C86.1338 13.5494 86.0608 13.7937 85.9148 13.9269C85.7688 14.0602 85.5164 14.1268 85.1577 14.1268ZM94.0487 14.3996V14.1268C94.4074 14.1268 94.6598 14.0602 94.8058 13.9269C94.9518 13.7937 95.0248 13.5494 95.0248 13.1942V9.12743C95.0248 8.72562 94.9528 8.43379 94.8089 8.25192C94.665 8.07004 94.4116 7.97911 94.0487 7.97911V7.7063C94.3157 7.73168 94.5805 7.74437 94.8433 7.74437C95.3856 7.74437 95.8298 7.68515 96.176 7.56673V13.1942C96.176 13.5494 96.249 13.7937 96.395 13.9269C96.541 14.0602 96.7934 14.1268 97.1521 14.1268V14.3996C96.3679 14.3657 95.8507 14.3488 95.6004 14.3488C95.3501 14.3488 94.8329 14.3657 94.0487 14.3996ZM94.934 4.70543C94.7734 4.87038 94.6931 5.06494 94.6931 5.28911C94.6931 5.51751 94.7734 5.71312 94.934 5.87596C95.0946 6.0388 95.2875 6.12022 95.5128 6.12022C95.7339 6.12022 95.9257 6.0388 96.0884 5.87596C96.2511 5.71312 96.3324 5.51751 96.3324 5.28911C96.3324 5.06494 96.2511 4.87038 96.0884 4.70543C95.9257 4.54048 95.7339 4.458 95.5128 4.458C95.2875 4.458 95.0946 4.54048 94.934 4.70543ZM99.2919 11.1069V11.0244C99.2919 9.98391 99.4525 9.193 99.7737 8.65161C100.099 8.10176 100.525 7.82684 101.05 7.82684C101.768 7.82684 102.245 8.16098 102.483 8.82925V12.693C102.387 13.1667 102.204 13.5346 101.935 13.7969C101.666 14.0591 101.365 14.1903 101.031 14.1903C100.452 14.1944 100.016 13.9343 99.7236 13.4099C99.4317 12.8939 99.2878 12.1262 99.2919 11.1069ZM105.467 11.2147C105.467 10.077 105.729 9.17819 106.253 8.51838C106.776 7.85856 107.48 7.52866 108.364 7.52866C109.132 7.52866 109.723 7.76446 110.138 8.23605C110.553 8.70765 110.761 9.4235 110.761 10.3836H106.756C106.727 10.6162 106.713 10.8933 106.713 11.2147C106.713 12.0649 106.909 12.7479 107.301 13.2639C107.693 13.78 108.15 14.038 108.671 14.038C109.53 14.038 110.158 13.6044 110.554 12.7374L110.811 12.8389C110.656 13.3168 110.368 13.7271 109.944 14.0697C109.521 14.4123 109.011 14.5836 108.414 14.5836C107.501 14.5836 106.781 14.2748 106.256 13.6573C105.73 13.0398 105.467 12.2256 105.467 11.2147ZM109.528 10.1362H106.738C106.804 9.35371 106.983 8.76475 107.273 8.36929C107.562 7.97382 107.91 7.77609 108.314 7.77609C108.723 7.77609 109.034 8.00025 109.247 8.44859C109.438 8.85463 109.534 9.34737 109.534 9.92682C109.534 9.99449 109.532 10.0643 109.528 10.1362ZM111.862 13.0355C111.862 12.786 111.906 12.564 111.993 12.3694C112.081 12.1748 112.224 11.9972 112.422 11.8365C112.62 11.6757 112.831 11.5351 113.054 11.4146C113.277 11.294 113.568 11.1576 113.927 11.0054C113.981 10.98 114.072 10.9419 114.199 10.8912C114.326 10.8404 114.416 10.8034 114.468 10.7801L114.703 10.6755C114.807 10.6289 114.881 10.5919 114.925 10.5644C114.968 10.5369 115.027 10.501 115.1 10.4566C115.173 10.4122 115.225 10.372 115.256 10.336C115.288 10.3001 115.322 10.2578 115.359 10.2091C115.397 10.1605 115.423 10.1108 115.438 10.0601C115.452 10.0093 115.46 9.95643 115.46 9.90144V9.09571C115.46 8.59239 115.356 8.24874 115.15 8.06476C114.943 7.88077 114.65 7.78878 114.271 7.78878C113.666 7.78878 113.243 7.94316 113.001 8.25191C113.172 8.29421 113.315 8.3862 113.429 8.52789C113.544 8.66958 113.601 8.84194 113.601 9.04496C113.601 9.2649 113.534 9.43725 113.398 9.56202C113.262 9.68679 113.08 9.74918 112.85 9.74918C112.634 9.74918 112.464 9.67516 112.341 9.52713C112.218 9.37909 112.156 9.18453 112.156 8.94345C112.156 8.60508 112.356 8.29633 112.757 8.01717C113.249 7.6915 113.847 7.52866 114.552 7.52866C115.266 7.52866 115.783 7.6915 116.104 8.01717C116.3 8.22019 116.435 8.45599 116.508 8.72457C116.581 8.99315 116.617 9.36429 116.617 9.838V13.4479C116.617 13.6636 116.647 13.8201 116.708 13.9174C116.768 14.0147 116.869 14.0633 117.011 14.0633C117.186 14.0633 117.378 13.9724 117.587 13.7905L117.731 14.0126C117.581 14.1268 117.464 14.2114 117.38 14.2663C117.297 14.3213 117.182 14.3721 117.036 14.4186C116.89 14.4651 116.732 14.4884 116.561 14.4884C116.148 14.4884 115.861 14.3837 115.7 14.1744C115.54 13.965 115.46 13.6848 115.46 13.3337C115.209 13.7525 114.909 14.0496 114.559 14.2251C114.208 14.4006 113.852 14.4884 113.489 14.4884C113.026 14.4884 112.639 14.3657 112.328 14.1204C112.017 13.8751 111.862 13.5135 111.862 13.0355ZM113.27 13.6795C113.082 13.4871 112.988 13.2026 112.988 12.8262C112.988 12.5893 113.024 12.3779 113.095 12.1917C113.165 12.0056 113.271 11.8481 113.41 11.7191C113.55 11.5901 113.677 11.4896 113.792 11.4177C113.907 11.3458 114.054 11.2655 114.233 11.1767C114.696 10.9483 115.001 10.7918 115.147 10.7072C115.293 10.6226 115.397 10.5316 115.46 10.4344V12.9848C115.063 13.6404 114.582 13.9682 114.014 13.9682C113.706 13.9682 113.457 13.8719 113.27 13.6795ZM118.45 14.4884C118.484 13.9935 118.5 13.1286 118.5 11.8936H118.794C118.832 12.2066 118.875 12.4772 118.923 12.7056C118.971 12.934 119.039 13.1561 119.126 13.3718C119.214 13.5875 119.32 13.7609 119.445 13.892C119.57 14.0231 119.728 14.1278 119.918 14.2061C120.107 14.2843 120.327 14.3234 120.578 14.3234C120.878 14.3234 121.143 14.223 121.372 14.0221C121.602 13.8212 121.716 13.5093 121.716 13.0863C121.716 12.9383 121.69 12.7976 121.638 12.6644C121.586 12.5312 121.525 12.4159 121.454 12.3186C121.383 12.2214 121.275 12.1135 121.131 11.9951C120.988 11.8766 120.858 11.7783 120.743 11.7001C120.629 11.6218 120.469 11.5171 120.265 11.386C120.106 11.2845 120.003 11.2179 119.955 11.1862C119.907 11.1545 119.813 11.091 119.674 10.9958C119.534 10.9007 119.439 10.8319 119.389 10.7897C119.339 10.7474 119.26 10.6797 119.151 10.5866C119.043 10.4936 118.968 10.4174 118.926 10.3582C118.884 10.299 118.828 10.2197 118.757 10.1203C118.686 10.0209 118.637 9.92788 118.61 9.84117C118.583 9.75447 118.558 9.65613 118.535 9.54616C118.512 9.43619 118.5 9.32199 118.5 9.20357C118.5 8.65372 118.681 8.23711 119.042 7.95373C119.402 7.67035 119.854 7.52866 120.396 7.52866C120.938 7.52866 121.404 7.68727 121.792 8.00449C121.883 8.07639 121.958 8.11234 122.017 8.11234C122.167 8.11234 122.263 7.92201 122.305 7.54135H122.599C122.565 7.96431 122.549 8.70024 122.549 9.74918H122.255C122.042 8.43378 121.46 7.77609 120.509 7.77609C120.2 7.77609 119.948 7.86385 119.752 8.03938C119.556 8.21491 119.458 8.45916 119.458 8.77215C119.458 8.88212 119.471 8.98469 119.498 9.07985C119.525 9.17502 119.571 9.26701 119.636 9.35583C119.701 9.44465 119.763 9.5229 119.824 9.59057C119.884 9.65824 119.974 9.73543 120.093 9.82214C120.212 9.90885 120.31 9.97863 120.387 10.0315C120.464 10.0844 120.582 10.1605 120.74 10.2599C120.899 10.3593 121.02 10.4365 121.103 10.4915C121.333 10.6437 121.519 10.7706 121.663 10.8721C121.807 10.9736 121.964 11.1005 122.133 11.2528C122.301 11.4051 122.432 11.5499 122.524 11.6874C122.615 11.8248 122.694 11.9866 122.758 12.1727C122.823 12.3588 122.855 12.5555 122.855 12.7627C122.855 13.1476 122.752 13.4807 122.545 13.762C122.339 14.0432 122.073 14.2505 121.748 14.3837C121.422 14.517 121.062 14.5836 120.665 14.5836C120.286 14.5836 119.948 14.5222 119.652 14.3996C119.485 14.315 119.31 14.1987 119.126 14.0506C119.093 14.0168 119.053 13.9999 119.007 13.9999C118.882 13.9999 118.794 14.1627 118.744 14.4884H118.45ZM126.697 7.71899V7.97911H127.929V12.3313C127.929 12.8008 127.967 13.1741 128.042 13.4511C128.117 13.7281 128.246 13.9618 128.43 14.1522C128.714 14.4398 129.118 14.5836 129.644 14.5836C130.545 14.5836 131.1 13.9851 131.308 12.7881L131.058 12.7247C130.929 13.2195 130.77 13.5748 130.582 13.7905C130.395 14.0062 130.167 14.1141 129.9 14.1141C129.629 14.1141 129.425 14.0284 129.287 13.8571C129.15 13.6858 129.081 13.4035 129.081 13.0102V7.97911H130.977V7.71899H129.081V5.54923C128.793 5.6592 128.409 5.72052 127.929 5.73321V7.71899H126.697ZM131.784 11.0625C131.784 10.5718 131.833 10.1298 131.931 9.73649C132.029 9.34314 132.164 9.01007 132.337 8.73726C132.511 8.46445 132.72 8.23711 132.966 8.05524C133.212 7.87337 133.478 7.74014 133.764 7.65555C134.05 7.57096 134.359 7.52866 134.693 7.52866C135.027 7.52866 135.337 7.57096 135.622 7.65555C135.908 7.74014 136.174 7.87337 136.42 8.05524C136.666 8.23711 136.876 8.46445 137.049 8.73726C137.222 9.01007 137.357 9.34314 137.456 9.73649C137.554 10.1298 137.603 10.5718 137.603 11.0625C137.603 11.6673 137.529 12.1991 137.38 12.6581C137.232 13.117 137.024 13.4849 136.755 13.762C136.486 14.039 136.179 14.2452 135.835 14.3805C135.491 14.5159 135.11 14.5836 134.693 14.5836C134.276 14.5836 133.895 14.5159 133.551 14.3805C133.207 14.2452 132.901 14.039 132.631 13.762C132.362 13.4849 132.154 13.117 132.006 12.6581C131.858 12.1991 131.784 11.6673 131.784 11.0625ZM133.476 13.5272C133.178 12.9964 133.029 12.1748 133.029 11.0625C133.029 9.94585 133.178 9.12109 133.476 8.58817C133.774 8.05524 134.18 7.78878 134.693 7.78878C135.206 7.78878 135.612 8.05524 135.91 8.58817C136.208 9.12109 136.357 9.94585 136.357 11.0625C136.357 12.1748 136.208 12.9964 135.91 13.5272C135.612 14.058 135.206 14.3234 134.693 14.3234C134.18 14.3234 133.774 14.058 133.476 13.5272ZM141.676 14.3996V14.1268C142.034 14.1268 142.287 14.0602 142.433 13.9269C142.579 13.7937 142.652 13.5494 142.652 13.1942V5.77128C142.652 5.36947 142.58 5.07869 142.436 4.89893C142.292 4.71917 142.039 4.6293 141.676 4.6293V4.35649C141.943 4.38187 142.208 4.39456 142.47 4.39456C143.021 4.39456 143.465 4.33323 143.803 4.21057V13.1942C143.803 13.5494 143.876 13.7937 144.022 13.9269C144.168 14.0602 144.42 14.1268 144.779 14.1268V14.3996C143.995 14.3657 143.478 14.3488 143.227 14.3488C142.977 14.3488 142.46 14.3657 141.676 14.3996ZM145.43 14.1268V14.3996C146.214 14.3657 146.731 14.3488 146.982 14.3488C147.232 14.3488 147.749 14.3657 148.533 14.3996V14.1268C148.175 14.1268 147.922 14.0602 147.776 13.9269C147.63 13.7937 147.557 13.5494 147.557 13.1942V7.56673C147.211 7.68515 146.767 7.74437 146.224 7.74437C145.962 7.74437 145.697 7.73168 145.43 7.7063V7.97911C145.793 7.97911 146.046 8.07004 146.19 8.25192C146.334 8.43379 146.406 8.72562 146.406 9.12743V13.1942C146.406 13.5494 146.333 13.7937 146.187 13.9269C146.041 14.0602 145.789 14.1268 145.43 14.1268ZM146.074 5.28911C146.074 5.06494 146.155 4.87038 146.315 4.70543C146.476 4.54048 146.669 4.458 146.894 4.458C147.115 4.458 147.307 4.54048 147.47 4.70543C147.632 4.87038 147.714 5.06494 147.714 5.28911C147.714 5.51751 147.632 5.71312 147.47 5.87596C147.307 6.0388 147.115 6.12022 146.894 6.12022C146.669 6.12022 146.476 6.0388 146.315 5.87596C146.155 5.71312 146.074 5.51751 146.074 5.28911ZM149.146 7.71899V7.97911H150.173V13.1942C150.173 13.5494 150.1 13.7937 149.954 13.9269C149.808 14.0602 149.555 14.1268 149.196 14.1268V14.3996C149.997 14.3657 150.502 14.3488 150.711 14.3488C150.973 14.3488 151.63 14.3657 152.682 14.3996V14.1268C152.227 14.1268 151.887 14.0496 151.662 13.8952C151.436 13.7408 151.324 13.4627 151.324 13.0609V7.97911H152.7V7.71899H151.324V7.38274C151.324 6.60027 151.338 6.03669 151.368 5.69197C151.397 5.34726 151.459 5.08821 151.555 4.91479C151.73 4.59334 152.008 4.43262 152.387 4.43262C152.558 4.43262 152.7 4.46012 152.813 4.5151C152.926 4.57008 152.994 4.63776 153.019 4.71812C152.857 4.75196 152.726 4.82703 152.628 4.94334C152.53 5.05966 152.481 5.20663 152.481 5.38427C152.481 5.59575 152.549 5.76493 152.685 5.89182C152.82 6.01871 152.986 6.08215 153.182 6.08215C153.382 6.08215 153.546 6.01765 153.673 5.88865C153.8 5.75965 153.864 5.59575 153.864 5.39696C153.864 5.07974 153.731 4.81117 153.464 4.59123C153.159 4.35438 152.788 4.23595 152.35 4.23595C152.037 4.23595 151.747 4.2941 151.48 4.41042C151.213 4.52673 150.996 4.6864 150.829 4.88942C150.583 5.18126 150.412 5.53548 150.316 5.95209C150.22 6.36871 150.173 6.95767 150.173 7.71899H149.146ZM153.658 11.2147C153.658 10.077 153.919 9.17819 154.443 8.51838C154.966 7.85856 155.67 7.52866 156.555 7.52866C157.322 7.52866 157.913 7.76446 158.328 8.23605C158.743 8.70765 158.951 9.4235 158.951 10.3836H154.947C154.917 10.6162 154.903 10.8933 154.903 11.2147C154.903 12.0649 155.099 12.7479 155.491 13.2639C155.883 13.78 156.34 14.038 156.861 14.038C157.72 14.038 158.348 13.6044 158.744 12.7374L159.001 12.8389C158.847 13.3168 158.558 13.7271 158.134 14.0697C157.711 14.4123 157.201 14.5836 156.605 14.5836C155.691 14.5836 154.972 14.2748 154.446 13.6573C153.92 13.0398 153.658 12.2256 153.658 11.2147ZM157.718 10.1362H154.928C154.994 9.35371 155.173 8.76475 155.463 8.36929C155.753 7.97382 156.1 7.77609 156.504 7.77609C156.913 7.77609 157.224 8.00025 157.437 8.44859C157.629 8.85463 157.725 9.34737 157.725 9.92682C157.725 9.99449 157.722 10.0643 157.718 10.1362Z" fill="#808080"/>
<path d="M44.2249 6.31583C44.8064 6.31583 45.2778 5.84456 45.2778 5.2632C45.2778 4.68185 44.8064 4.21057 44.2249 4.21057C43.6433 4.21057 43.1719 4.68185 43.1719 5.2632C43.1719 5.84456 43.6433 6.31583 44.2249 6.31583Z" fill="#808080"/>
<path d="M95.7678 6.31583C96.3494 6.31583 96.8208 5.84456 96.8208 5.2632C96.8208 4.68185 96.3494 4.21057 95.7678 4.21057C95.1863 4.21057 94.7148 4.68185 94.7148 5.2632C94.7148 5.84456 95.1863 6.31583 95.7678 6.31583Z" fill="#808080"/>
<path d="M146.364 6.31583C146.945 6.31583 147.417 5.84456 147.417 5.2632C147.417 4.68185 146.945 4.21057 146.364 4.21057C145.782 4.21057 145.311 4.68185 145.311 5.2632C145.311 5.84456 145.782 6.31583 146.364 6.31583Z" fill="#808080"/>
</svg>
