<svg width="20" height="20" viewBox="0 0 20 20" fill="none" xmlns="http://www.w3.org/2000/svg">
<path fill-rule="evenodd" clip-rule="evenodd" d="M17.0703 0H2.92969C1.3125 0 0 1.3125 0 2.92969V17.0703C0 18.6875 1.3125 20 2.92969 20H17.0703C18.6875 20 20 18.6875 20 17.0703V2.92969C20 1.3125 18.6875 0 17.0703 0ZM4.72656 10.0391C4.72656 12.9453 7.09379 15.3125 10 15.3125C12.9062 15.3125 15.2734 12.9453 15.2734 10.0391C15.2734 7.13277 12.9062 4.76562 10 4.76562C7.09379 4.76562 4.72656 7.13277 4.72656 10.0391ZM16.4453 4.76562C15.8008 4.76562 15.2734 4.23828 15.2734 3.59375C15.2734 2.94922 15.8008 2.42188 16.4453 2.42188C17.0898 2.42188 17.6172 2.94922 17.6172 3.59375C17.6172 4.23828 17.0898 4.76562 16.4453 4.76562ZM5.89844 10.0391C5.89844 7.77734 7.73828 5.9375 10 5.9375C12.2617 5.9375 14.1016 7.77734 14.1016 10.0391C14.1016 12.3008 12.2617 14.1406 10 14.1406C7.73828 14.1406 5.89844 12.3008 5.89844 10.0391Z" fill="black"/>
</svg>
