<svg width="24" height="24" viewBox="0 0 24 24" fill="none" xmlns="http://www.w3.org/2000/svg">
<path d="M23.304 5.608L5.16 3.288L4.792 0.688C4.736 0.296 4.4 0 4 0H0.8C0.36 0 0 0.36 0 0.8C0 1.24 0.36 1.6 0.8 1.6H3.304L3.664 4.104V4.112L5.008 13.48L3.792 16.136C3.56 16.632 3.6 17.2 3.896 17.664C4.192 18.128 4.696 18.4 5.248 18.4H21.6C22.04 18.4 22.4 18.04 22.4 17.6C22.4 17.16 22.04 16.8 21.6 16.8H5.248L6.344 14.4H21.68C22.504 14.4 23.184 13.784 23.2721 12.976L23.9921 6.488C24.04 6.056 23.736 5.664 23.304 5.608Z" fill="#ADADAF"/>
<path d="M19.2008 19.2C17.8808 19.2 16.8008 20.28 16.8008 21.6C16.8008 22.92 17.8808 24 19.2008 24C20.5208 24 21.6008 22.92 21.6008 21.6C21.6008 20.28 20.5208 19.2 19.2008 19.2Z" fill="#ADADAF"/>
<path d="M7.20078 19.2C5.88078 19.2 4.80078 20.28 4.80078 21.6C4.80078 22.92 5.88078 24 7.20078 24C8.52078 24 9.60078 22.92 9.60078 21.6C9.60078 20.28 8.52078 19.2 7.20078 19.2Z" fill="#ADADAF"/>
</svg>
