<svg width="24" height="24" viewBox="0 0 24 24" fill="none" xmlns="http://www.w3.org/2000/svg">
<path d="M23.304 5.608L5.16 3.288L4.792 0.688C4.736 0.296 4.4 0 4 0H0.8C0.36 0 0 0.36 0 0.8C0 1.24 0.36 1.6 0.8 1.6H3.304L3.664 4.104V4.112L5.008 13.48L3.792 16.136C3.56 16.632 3.6 17.2 3.896 17.664C4.192 18.128 4.696 18.4 5.248 18.4H21.6C22.04 18.4 22.4 18.04 22.4 17.6C22.4 17.16 22.04 16.8 21.6 16.8H5.248L6.344 14.4H21.68C22.504 14.4 23.184 13.784 23.2721 12.976L23.9921 6.488C24.04 6.056 23.736 5.664 23.304 5.608Z" fill="#41C59F"/>
<path d="M19.2008 19.2002C17.8808 19.2002 16.8008 20.2802 16.8008 21.6002C16.8008 22.9202 17.8808 24.0002 19.2008 24.0002C20.5208 24.0002 21.6008 22.9202 21.6008 21.6002C21.6008 20.2802 20.5208 19.2002 19.2008 19.2002Z" fill="#41C59F"/>
<path d="M7.20078 19.2002C5.88078 19.2002 4.80078 20.2802 4.80078 21.6002C4.80078 22.9202 5.88078 24.0002 7.20078 24.0002C8.52078 24.0002 9.60078 22.9202 9.60078 21.6002C9.60078 20.2802 8.52078 19.2002 7.20078 19.2002Z" fill="#41C59F"/>
</svg>
