<svg width="16" height="16" viewBox="0 0 16 16" fill="none" xmlns="http://www.w3.org/2000/svg">
<path fill-rule="evenodd" clip-rule="evenodd" d="M12.8178 11.6526L15.7789 14.6104C16.0769 14.928 16.0769 15.4243 15.759 15.7618C15.6199 15.9206 15.4211 16 15.2026 16C15.0038 16 14.8051 15.9206 14.6461 15.7618L11.6851 12.804C10.4132 13.8164 8.82344 14.3722 7.19389 14.3722C5.26624 14.3722 3.45784 13.6179 2.1065 12.268C0.755159 10.8983 0 9.11166 0 7.1861C0 5.26055 0.755159 3.45409 2.1065 2.10422C3.47771 0.754342 5.26624 0 7.19389 0C9.12153 0 10.9299 0.754342 12.2813 2.10422C14.8647 4.66501 15.0833 8.83375 12.8178 11.6526ZM11.1684 11.1166C12.2217 10.0645 12.798 8.65509 12.798 7.16625C12.798 5.67742 12.2217 4.26799 11.1684 3.21588C10.1152 2.16377 8.70421 1.58809 7.21376 1.58809C5.72331 1.58809 4.31236 2.16377 3.25911 3.21588C2.20586 4.26799 1.62955 5.67742 1.62955 7.16625C1.62955 8.65509 2.20586 10.0645 3.25911 11.1166C4.31236 12.1687 5.72331 12.7444 7.21376 12.7444C8.70421 12.7444 10.1152 12.1687 11.1684 11.1166Z" fill="#41C59F"/>
</svg>
