<svg width="202" height="45" viewBox="0 0 202 45" fill="none" xmlns="http://www.w3.org/2000/svg">
<path d="M63.9152 33.6901C61.8697 33.6901 59.9446 33.6901 57.9473 33.6901C58.7173 23.4628 59.4874 13.3077 60.2574 3.10449C62.5435 3.10449 64.8056 3.10449 67.0917 3.10449C69.6184 9.98685 72.458 16.7729 74.7441 23.8719C75.1291 22.789 75.4179 21.8024 75.8029 20.8638C77.2949 17.0136 78.7868 13.1633 80.3029 9.31305C81.0489 7.38791 81.8189 5.48685 82.589 3.58578C82.7815 3.10449 82.7815 3.10449 83.2868 3.10449C85.212 3.10449 87.1371 3.10449 89.0622 3.10449C89.2066 3.10449 89.3751 3.12856 89.5917 3.12856C90.2654 13.3318 90.9633 23.4868 91.6371 33.7141C89.6157 33.7141 87.6425 33.7141 85.597 33.7141C85.1879 27.1687 84.7548 20.5991 84.4179 13.9093C84.2975 14.1259 84.2253 14.2221 84.1772 14.3425C81.7467 20.5751 79.3162 26.8077 76.8858 33.0403C76.6692 33.5697 76.6692 33.5697 76.0917 33.5697C74.7922 33.5697 73.5168 33.5697 72.1451 33.5697C69.835 27.2168 67.5248 20.8638 65.1665 14.4387C64.7574 20.8879 64.3483 27.2649 63.9152 33.6901Z" fill="black"/>
<path fill-rule="evenodd" clip-rule="evenodd" d="M28.1316 9.43307C26.3508 12.2245 25.677 15.3288 25.6289 18.7218C25.653 20.3101 25.8214 22.0186 26.3268 23.6791C27.6744 28.2513 30.4658 31.524 34.9658 33.2325C37.9498 34.3636 41.0059 34.4839 44.1102 33.8341C49.2118 32.7272 52.8214 29.7914 54.6984 24.9063C56.1904 21.0079 56.3348 16.9652 55.1797 12.9464C53.8802 8.42238 51.0407 5.19778 46.5647 3.53735C43.7011 2.50259 40.7653 2.33414 37.8054 2.91168C33.6663 3.7058 30.3936 5.84751 28.1316 9.43307ZM33.5941 24.7619C32.4872 22.8128 32.054 20.7192 32.054 17.8796C32.0781 16.171 32.5113 13.9571 33.6663 11.9117C34.9417 9.69778 36.7947 8.27799 39.3455 7.89297C43.3642 7.2673 46.5647 9.04805 48.2733 12.6095C49.3562 14.8716 49.6931 17.278 49.4524 19.7566C49.3081 21.3208 48.9471 22.8128 48.2492 24.2325C47.3107 26.1336 45.9631 27.6256 43.9658 28.4197C40.7171 29.7192 36.0968 29.2138 33.5941 24.7619Z" fill="black"/>
<path fill-rule="evenodd" clip-rule="evenodd" d="M135.384 33.7105L135.385 33.7141H141.906C139.85 28.1482 137.809 22.5895 135.769 17.0379C134.061 12.3884 132.355 7.74396 130.644 3.10449H124.34C124.321 3.1516 124.302 3.19133 124.285 3.22801C124.257 3.28503 124.234 3.33469 124.219 3.39326C122.378 8.41064 120.543 13.428 118.709 18.4454C116.874 23.4628 115.039 28.4802 113.198 33.4975C113.174 33.5457 113.174 33.5697 113.174 33.6179C113.174 33.6179 113.198 33.6419 113.198 33.666C113.198 33.678 113.204 33.684 113.21 33.6901C113.216 33.6961 113.222 33.7021 113.222 33.7141H119.527L119.527 33.7141C119.599 33.5216 119.671 33.3291 119.743 33.1606C120.213 31.8612 120.676 30.5557 121.139 29.2502C121.602 27.9447 122.066 26.6392 122.535 25.3398C122.632 25.0615 122.68 24.9232 122.777 24.8544C122.873 24.7863 123.018 24.7863 123.305 24.7863H131.511H132.112C133.219 27.7931 134.301 30.7518 135.384 33.7105ZM127.42 11.2863C128.455 14.1259 129.465 16.8933 130.5 19.7088H124.388C125.398 16.8933 126.385 14.1499 127.42 11.2863Z" fill="black"/>
<path fill-rule="evenodd" clip-rule="evenodd" d="M95.5846 33.7142H101.625V22.5243H102.828C104.922 22.5965 107.015 22.4281 109.036 21.8265C111.01 21.2489 112.766 20.3345 114.162 18.8425C116.328 16.5083 116.881 13.7168 116.448 10.6848C115.991 7.60454 114.21 5.46283 111.419 4.16337C109.566 3.29705 107.569 2.96016 105.547 2.88796C102.587 2.76764 99.6515 2.96016 96.7397 3.36925C96.4473 3.40365 96.1549 3.46263 95.8713 3.51984C95.7581 3.54268 95.6463 3.56523 95.5365 3.58582C95.4162 4.98155 95.4643 33.2569 95.5846 33.7142ZM101.649 17.2302V8.06176L101.674 8.06001C103.71 7.91622 105.699 7.77581 107.617 8.47085C108.964 8.95214 110.023 9.79438 110.312 11.2864C110.793 13.765 109.951 15.9067 107.352 16.8692C106.991 16.9896 106.63 17.1099 106.245 17.1821C104.753 17.4709 103.261 17.4949 101.769 17.3024C101.752 17.3024 101.735 17.2904 101.701 17.2663C101.687 17.2563 101.67 17.2443 101.649 17.2302Z" fill="black"/>
<path d="M25.8939 4.40362C25.3645 6.08811 24.8351 7.72447 24.2816 9.40897C23.9929 9.28864 23.7763 9.21645 23.5356 9.09613C21.1052 7.98918 18.5303 7.70041 15.8832 7.94105C14.9207 8.03731 13.9822 8.20576 13.0677 8.51859C9.81906 9.62554 7.7736 11.8394 6.93136 15.1603C6.37788 17.302 6.35382 19.4678 6.88323 21.6095C7.7736 25.3154 10.1319 27.6015 13.7896 28.5159C16.6773 29.2138 19.565 28.9972 22.4046 28.155C22.91 28.0106 23.3672 27.7699 23.8485 27.5774C24.0169 27.5052 24.1854 27.433 24.426 27.3368C24.9073 29.0213 25.3645 30.6576 25.8217 32.3181C25.0517 32.7512 24.2576 33.064 23.4634 33.3047C21.5383 33.8582 19.541 34.0747 17.5437 34.171C14.9688 34.2913 12.4421 34.0266 9.9875 33.1603C6.45007 31.933 3.68269 29.7432 1.92601 26.3742C1.10783 24.8341 0.602479 23.1737 0.385901 21.441C0.0490028 18.8662 0.121195 16.2913 0.867185 13.7886C2.23884 9.14426 5.19874 5.94372 9.62654 4.04265C11.6961 3.15228 13.8859 2.71913 16.1239 2.62287C18.434 2.52661 20.6961 2.671 22.934 3.22447C23.9447 3.48918 24.9073 3.87421 25.8939 4.40362Z" fill="black"/>
<path d="M167.055 4.35565C166.502 6.0642 165.972 7.72463 165.443 9.43319C165.13 9.2888 164.865 9.16848 164.576 9.04816C161.352 7.65244 158.055 7.43586 154.686 8.37436C151.101 9.36099 148.863 11.7433 147.996 15.4011C147.515 17.4947 147.491 19.6123 148.02 21.6819C148.935 25.3637 151.293 27.6257 154.927 28.5161C157.911 29.238 160.895 28.9974 163.806 28.0589C164.216 27.9385 164.576 27.722 164.986 27.5535C165.154 27.4813 165.322 27.4091 165.563 27.3129C166.044 28.9974 166.502 30.6097 166.959 32.2941C166.429 32.607 165.852 32.8476 165.274 33.0401C163.638 33.6177 161.929 33.8824 160.197 34.0508C158.32 34.2193 156.443 34.2433 154.566 33.9546C150.74 33.4011 147.371 31.9091 144.772 28.9252C143.111 27 142.101 24.7621 141.643 22.2594C141.09 19.2754 141.162 16.3155 142.076 13.4278C143.544 8.85565 146.601 5.7273 151.028 3.94656C153.122 3.10431 155.312 2.69522 157.55 2.64709C160.028 2.5749 162.483 2.74335 164.841 3.48934C165.611 3.70591 166.309 4.04281 167.055 4.35565Z" fill="black"/>
<path d="M182.84 33.7141C180.747 33.7141 178.75 33.7141 176.68 33.7141C176.68 25.2676 176.68 16.8451 176.68 8.37455C173.552 8.37455 170.471 8.37455 167.367 8.37455C167.367 6.5938 167.367 4.86118 167.367 3.10449C175.621 3.10449 183.875 3.10449 192.177 3.10449C192.177 4.83711 192.177 6.54567 192.177 8.35048C189.073 8.35048 185.993 8.35048 182.84 8.35048C182.84 16.8211 182.84 25.2435 182.84 33.7141Z" fill="black"/>
<path d="M32.1741 40.043C32.5351 40.043 32.7998 40.043 33.1367 40.043C33.642 41.2943 34.1714 42.5697 34.6768 43.8692C35.2302 42.5938 35.7597 41.3184 36.2891 40.043C36.626 40.043 36.9147 40.043 37.2516 40.043C37.372 41.6312 37.4923 43.1954 37.6126 44.8077C37.372 44.8077 37.1554 44.8077 36.8907 44.8077C36.7944 43.5323 36.7222 42.2569 36.65 40.9815C36.626 40.9815 36.5778 40.9815 36.5538 40.9815C36.0244 42.2569 35.4709 43.5082 34.9415 44.7836C34.749 44.7836 34.5805 44.7836 34.3399 44.7836C33.8586 43.5323 33.3532 42.2569 32.8479 41.0055C32.8238 41.0055 32.7998 41.0055 32.7516 41.0055C32.6554 42.2809 32.5832 43.5323 32.4869 44.8077C32.2222 44.8077 32.0297 44.8077 31.7891 44.8077C31.9094 43.2435 32.0297 41.6793 32.1741 40.043Z" fill="black"/>
<path fill-rule="evenodd" clip-rule="evenodd" d="M197.399 0.481344C196.293 1.03482 195.883 2.04552 195.859 3.00808C195.859 4.86102 196.798 5.99204 198.338 6.18455C199.83 6.37707 201.105 5.53482 201.466 4.09097C201.539 3.8022 201.563 3.51343 201.587 3.22466C201.683 0.9145 199.469 -0.553415 197.399 0.481344ZM200.191 1.49204C200.576 1.99739 200.72 2.57493 200.72 3.2006C200.72 3.75407 200.6 4.33161 200.215 4.8129C199.445 5.87172 197.881 5.87172 197.135 4.76477C196.509 3.87439 196.533 2.40648 197.159 1.54017C197.905 0.505409 199.421 0.481344 200.191 1.49204Z" fill="black"/>
<path d="M161.712 40.091C162.217 39.9225 162.554 40.0669 162.819 40.476C163.565 41.5589 164.359 42.6418 165.129 43.7006C165.177 43.7728 165.201 43.845 165.297 43.8209C165.297 42.5696 165.297 41.3423 165.297 40.0428C165.49 40.0428 165.706 40.0428 165.923 40.0428C165.923 41.6311 165.923 43.1952 165.923 44.7835C165.466 44.9519 165.153 44.8075 164.888 44.4225C164.07 43.2915 163.228 42.1605 162.361 40.9813C162.361 42.2808 162.361 43.5081 162.361 44.8075C162.121 44.8075 161.928 44.8075 161.688 44.8075C161.712 43.2434 161.712 41.6792 161.712 40.091Z" fill="black"/>
<path fill-rule="evenodd" clip-rule="evenodd" d="M51.1367 40.1148V44.8314C51.2839 44.8406 51.424 44.8533 51.5585 44.8655C51.7758 44.8852 51.9782 44.9036 52.1715 44.9036C52.9415 44.9036 53.7116 44.8555 54.4335 44.5427C55.3239 44.1576 55.8533 43.2913 55.8052 42.2806C55.7811 41.3181 55.3479 40.6202 54.4335 40.2833C53.3506 39.8742 52.2437 39.9464 51.1367 40.1148ZM51.8827 44.3261V40.5721C52.5324 40.4277 53.11 40.4517 53.6875 40.5721C54.4576 40.7886 54.9148 41.2699 55.0351 42.064C55.1314 42.8582 54.7945 43.6763 54.1207 44.0373C53.4228 44.4223 52.6768 44.4705 51.8827 44.3261Z" fill="black"/>
<path fill-rule="evenodd" clip-rule="evenodd" d="M79.1488 42.5216C79.1729 43.9896 80.2077 44.9521 81.7237 44.9521C83.2398 44.9521 84.2264 44.1099 84.3708 42.6179C84.4911 41.4388 83.8414 40.3559 82.6382 40.043C82.3013 39.9708 81.9403 39.9468 81.6034 39.9468C80.1595 39.9949 79.1248 41.0778 79.1488 42.5216ZM83.5633 42.035C83.598 42.158 83.6328 42.281 83.6729 42.4013C83.6007 43.8452 82.4697 44.7596 81.2184 44.3505C80.713 44.2061 80.3761 43.8933 80.1595 43.4361C79.8226 42.7142 79.8708 41.9922 80.2317 41.3184C80.5446 40.6928 81.1221 40.4281 81.7959 40.4281C82.4697 40.4521 82.9991 40.7168 83.312 41.3184C83.4242 41.543 83.4938 41.789 83.5633 42.035Z" fill="black"/>
<path fill-rule="evenodd" clip-rule="evenodd" d="M151.918 42.5454C151.967 43.9892 152.977 44.9518 154.565 44.9518C154.638 44.9518 154.806 44.9518 154.95 44.9277C156.226 44.7593 157.068 43.8208 157.14 42.4973C157.213 41.2459 156.418 40.2352 155.215 39.9946C154.926 39.9465 154.638 39.9224 154.349 39.9465C152.905 40.0186 151.894 41.1015 151.918 42.5454ZM156.333 42.0347C156.368 42.1577 156.402 42.2807 156.442 42.401C156.37 43.8689 155.215 44.7834 153.94 44.3502C153.458 44.2058 153.122 43.893 152.929 43.4598C152.592 42.7138 152.616 41.9919 153.025 41.294C153.699 40.139 155.432 40.163 156.081 41.3181C156.194 41.5427 156.263 41.7887 156.333 42.0347Z" fill="black"/>
<path fill-rule="evenodd" clip-rule="evenodd" d="M91.8057 44.8557H92.5998C92.4743 44.589 92.4025 44.3069 92.3318 44.0295C92.1858 43.456 92.0449 42.9023 91.4447 42.5455C91.4959 42.5114 91.544 42.4803 91.5891 42.4512C91.6713 42.3981 91.7435 42.3515 91.8057 42.3049C91.926 42.2327 92.0463 42.1364 92.1426 42.0161C92.696 41.3423 92.3591 40.4038 91.4206 40.1391C90.6025 39.9225 89.7602 39.9706 88.918 40.1391V44.8557H89.664V42.8102C89.7434 42.8102 89.8083 42.8029 89.8667 42.7964C89.9143 42.791 89.9576 42.7861 90.0009 42.7861C90.9394 42.7621 91.2281 42.9787 91.4928 43.869C91.5315 43.9947 91.5741 44.1243 91.6174 44.2562C91.6819 44.4526 91.7481 44.6541 91.8057 44.8557ZM89.6613 41.1443C89.6667 40.9539 89.672 40.7644 89.664 40.5722C90.1693 40.4519 90.5784 40.476 90.9875 40.5722C91.4206 40.6926 91.6613 40.9573 91.6853 41.3182C91.7094 41.7033 91.4928 42.0402 91.0597 42.1605C90.7468 42.2474 90.434 42.2715 90.1121 42.2964C89.9883 42.3059 89.8631 42.3156 89.7362 42.3289C89.6398 41.9114 89.6506 41.5261 89.6613 41.1443Z" fill="black"/>
<path fill-rule="evenodd" clip-rule="evenodd" d="M111.707 44.8557H112.477C112.355 44.5903 112.282 44.3155 112.21 44.0476C112.054 43.4651 111.907 42.9157 111.298 42.5696C111.339 42.5459 111.38 42.5237 111.421 42.5019C111.546 42.435 111.664 42.3716 111.755 42.2808C111.779 42.257 111.803 42.2331 111.828 42.209C111.953 42.0874 112.084 41.9602 112.164 41.7995C112.501 41.1257 112.092 40.3557 111.249 40.1391C110.455 39.9225 109.637 39.9706 108.795 40.1391V44.8557H109.541V42.8343C110.768 42.6658 111.105 42.8824 111.418 43.9653C111.466 44.1097 111.514 44.2601 111.562 44.4105C111.61 44.5609 111.659 44.7113 111.707 44.8557ZM109.734 42.2647C109.679 42.262 109.622 42.2592 109.565 42.2567C109.565 41.6792 109.565 41.1498 109.589 40.5722C110.07 40.4279 110.552 40.4519 111.033 40.6204C111.37 40.7407 111.562 41.0054 111.562 41.3664C111.562 41.7273 111.37 41.992 111.057 42.1364C110.647 42.309 110.218 42.2882 109.734 42.2647Z" fill="black"/>
<path d="M120.153 44.3502C120.129 44.5668 120.129 44.7111 120.129 44.8555C119.07 44.8555 118.035 44.8555 116.977 44.8555C116.977 43.2673 116.977 41.6791 116.977 40.0908C117.987 40.0908 118.974 40.0908 119.985 40.0908C119.985 40.2352 120.009 40.3555 120.009 40.548C119.239 40.548 118.517 40.548 117.723 40.548C117.723 41.0775 117.723 41.5587 117.723 42.0881C118.444 42.0881 119.142 42.0881 119.864 42.0881C119.864 42.2807 119.864 42.425 119.864 42.6176C119.166 42.6176 118.469 42.6176 117.723 42.6176C117.723 43.2192 117.723 43.7726 117.723 44.3742C118.517 44.3502 119.287 44.3502 120.153 44.3502Z" fill="black"/>
<path fill-rule="evenodd" clip-rule="evenodd" d="M45.8918 44.8316H46.6619C46.0122 43.1952 45.3865 41.6311 44.7608 40.0669H43.8464C43.6192 40.6437 43.3856 41.2172 43.1515 41.7923C42.7409 42.8007 42.3284 43.8135 41.9453 44.8557H42.6672C42.7884 44.5377 42.9191 44.2196 43.0473 43.9076C43.1228 43.7238 43.1975 43.5421 43.2688 43.3637H45.2902C45.4032 43.6603 45.5245 43.9486 45.6443 44.2334C45.7287 44.434 45.8123 44.6328 45.8918 44.8316ZM44.926 42.3297C44.9904 42.4954 45.0555 42.6629 45.1218 42.8343H43.4614C43.5168 42.6863 43.5723 42.542 43.6264 42.4011C43.7131 42.1754 43.7964 41.9588 43.8704 41.7514C43.9908 41.4145 44.1111 41.0776 44.2795 40.6444C44.502 41.2376 44.7102 41.7737 44.926 42.3297Z" fill="black"/>
<path d="M60.3776 40.0669C61.3883 40.0669 62.3508 40.0669 63.3615 40.0669C63.3856 40.2113 63.3856 40.3316 63.4097 40.5482C62.6155 40.5482 61.8936 40.5482 61.0995 40.5482C61.0995 41.0535 61.0995 41.5107 61.0995 42.0402C61.7733 42.1364 62.4952 42.0402 63.2412 42.0883C63.2412 42.2567 63.2653 42.4011 63.2653 42.5936C62.5193 42.5936 61.8214 42.5936 61.0995 42.5936C61.0995 43.1712 61.0995 43.7246 61.0995 44.3503C61.8936 44.3503 62.7118 44.3503 63.53 44.3503C63.53 44.5428 63.53 44.6632 63.53 44.8316C62.4712 44.8316 61.4364 44.8316 60.3535 44.8316C60.3776 43.2434 60.3776 41.6551 60.3776 40.0669Z" fill="black"/>
<path fill-rule="evenodd" clip-rule="evenodd" d="M101.431 44.8318V42.9789C101.492 42.9789 101.552 42.9805 101.611 42.982C101.782 42.9865 101.943 42.9907 102.105 42.9548C102.203 42.9342 102.302 42.9147 102.401 42.8951C102.766 42.8233 103.136 42.7503 103.476 42.6179C103.934 42.4254 104.15 42.0163 104.174 41.511C104.222 40.7891 103.789 40.2596 102.971 40.0912C102.225 39.9227 101.479 39.9709 100.709 40.1153V44.8318H101.431ZM101.431 42.3532V40.4762C101.579 40.4836 101.721 40.4888 101.858 40.4937C102.164 40.5049 102.447 40.5151 102.73 40.5484C103.164 40.6206 103.428 40.9334 103.452 41.3425C103.476 41.7276 103.26 42.0885 102.899 42.281C102.466 42.5217 101.96 42.5457 101.431 42.3532Z" fill="black"/>
<path d="M72.5302 44.8559C72.2174 44.8559 72.0249 44.8559 71.8324 44.8559C71.7121 44.4227 71.6639 41.3185 71.7602 40.1393C72.1452 39.9949 74.0463 39.9709 74.7923 40.0912C74.7923 40.2115 74.8163 40.3318 74.8163 40.5484C74.0463 40.5484 73.3244 40.5484 72.5302 40.5484C72.5302 41.1019 72.5302 41.5832 72.5302 42.1607C73.204 42.1607 73.8778 42.1607 74.5998 42.1607C74.5998 42.3773 74.5998 42.4976 74.5998 42.6901C73.9019 42.6901 73.2522 42.6901 72.5302 42.6901C72.5302 43.4121 72.5302 44.0859 72.5302 44.8559Z" fill="black"/>
<path d="M138.539 44.6873C138.635 44.4466 138.683 44.3263 138.732 44.1819C138.804 44.1819 138.876 44.1819 138.924 44.206C139.429 44.3985 139.959 44.5188 140.512 44.3744C140.729 44.3022 140.97 44.1819 141.138 44.0135C141.403 43.7247 141.306 43.2434 140.945 43.0028C140.705 42.8584 140.416 42.7621 140.175 42.6418C139.887 42.5215 139.598 42.4252 139.333 42.2809C138.948 42.0643 138.683 41.7274 138.708 41.2461C138.732 40.7407 138.996 40.4279 139.429 40.2113C140.175 39.8504 140.945 39.8985 141.788 40.1873C141.74 40.3798 141.691 40.5242 141.643 40.6686C141.355 40.5964 141.114 40.5242 140.873 40.5001C140.609 40.476 140.344 40.5001 140.079 40.5482C139.742 40.6204 139.502 40.8129 139.478 41.1498C139.429 41.5108 139.67 41.7274 139.959 41.8477C140.175 41.944 140.392 42.0161 140.609 42.1124C140.873 42.2327 141.138 42.329 141.403 42.4493C141.836 42.6899 142.101 43.075 142.076 43.5803C142.052 44.1097 141.74 44.4707 141.282 44.6873C140.825 44.9038 140.32 44.976 139.814 44.9038C139.381 44.8798 138.996 44.7835 138.539 44.6873Z" fill="black"/>
<path d="M128.576 44.3261C128.6 44.3983 128.648 44.5186 128.696 44.7112C128.48 44.7593 128.287 44.8315 128.071 44.8555C127.349 44.9759 126.651 44.9518 125.977 44.7112C125.063 44.3983 124.533 43.7726 124.413 42.8341C124.293 41.8956 124.581 41.0775 125.4 40.524C126.41 39.8261 127.517 39.8502 128.696 40.139C128.648 40.3315 128.624 40.4518 128.6 40.524C127.95 40.524 127.373 40.4518 126.795 40.548C125.712 40.7165 125.159 41.4866 125.207 42.5935C125.255 43.5801 125.881 44.2539 126.916 44.3502C127.397 44.4224 127.926 44.3502 128.576 44.3261Z" fill="black"/>
<path d="M133.244 40.0669C133.485 40.0669 133.677 40.0669 133.918 40.0669C133.918 41.6551 133.918 43.2193 133.918 44.8316C133.725 44.8316 133.509 44.8316 133.244 44.8316C133.244 43.2674 133.244 41.7033 133.244 40.0669Z" fill="black"/>
<path d="M147.347 44.8314C147.106 44.8314 146.889 44.8314 146.697 44.8314C146.577 44.4223 146.553 40.8367 146.673 40.0667C146.769 40.0426 146.889 40.0186 146.986 40.0186C147.082 40.0186 147.178 40.0426 147.323 40.0426C147.395 41.6549 147.347 43.2191 147.347 44.8314Z" fill="black"/>
<path fill-rule="evenodd" clip-rule="evenodd" d="M199.974 4.28128C199.852 3.89652 199.732 3.51408 199.325 3.24869C199.363 3.22126 199.4 3.19508 199.437 3.16958C199.559 3.08323 199.671 3.00468 199.782 2.9118C200.167 2.55083 200.119 2.02142 199.686 1.73265C199.541 1.6364 199.373 1.5642 199.205 1.54014C198.579 1.44388 197.977 1.44388 197.352 1.5642V4.7888C197.448 4.77677 197.538 4.77075 197.628 4.76474C197.719 4.75872 197.809 4.75271 197.905 4.74067V4.06688C197.917 3.95859 197.923 3.8503 197.929 3.74201C197.935 3.63372 197.941 3.52543 197.953 3.41714C198.94 3.29682 199.108 3.41714 199.397 4.28345C199.397 4.35565 199.421 4.40378 199.445 4.4519C199.59 4.83693 199.614 4.83693 200.119 4.69255C200.062 4.55873 200.018 4.41985 199.974 4.28128ZM199.084 2.93586C198.723 3.10431 198.338 3.10431 197.905 3.03212V1.92517C198.29 1.73265 198.699 1.78078 199.06 1.94923C199.229 2.02142 199.373 2.238 199.421 2.40645C199.493 2.64709 199.301 2.8396 199.084 2.93586Z" fill="black"/>
</svg>
