<svg width="131" height="30" viewBox="0 0 131 30" fill="none" xmlns="http://www.w3.org/2000/svg">
<path fill-rule="evenodd" clip-rule="evenodd" d="M120.273 15.0382V9.15002H118.852V12.5646C118.361 11.9302 117.592 11.5735 116.791 11.6073C114.961 11.6073 113.518 13.0418 113.518 15.0355C113.518 17.0291 114.952 18.4637 116.791 18.4637C117.592 18.4975 118.361 18.1407 118.852 17.5064V18.2973H120.273V15.0382ZM77.9215 11.7737H80.2424L80.2397 13.0718H77.9187V16.0228C77.9187 16.6773 78.1533 17.1137 78.8624 17.1137C79.3059 17.0992 79.7384 16.9725 80.1197 16.7455L80.5287 17.9618C79.9961 18.2935 79.3808 18.4684 78.7533 18.4664C77.0733 18.4664 76.4869 17.5637 76.4869 16.0473V13.0718H75.1615V11.7737H76.4869V9.79366H77.9215V11.7737ZM59.016 14.2118V18.3028H57.5787V14.67C57.5787 13.5628 57.0878 12.9491 56.1442 12.9491C55.2006 12.9491 54.546 13.5491 54.546 14.6837V18.3028H53.1197V14.67C53.1197 13.5628 52.6697 12.9491 51.6987 12.9491C50.7278 12.9491 50.1006 13.5491 50.1006 14.6837V18.3028H48.666V11.7682H50.0869V12.5864C50.5067 11.9478 51.2327 11.5786 51.996 11.6155C52.8737 11.5783 53.7014 12.024 54.1533 12.7773C54.6491 12.0011 55.5278 11.5561 56.4469 11.6155C58.0315 11.6291 59.016 12.6682 59.016 14.2118ZM92.3597 11.61C91.6539 11.5895 90.9935 11.9568 90.6387 12.5673V11.7737H89.2315V18.3028H90.6524V14.6428C90.6524 13.5518 91.116 12.9628 92.046 12.9628C92.3503 12.9584 92.6524 13.014 92.9351 13.1264L93.3715 11.7873C93.0467 11.6712 92.7045 11.6112 92.3597 11.61ZM71.376 11.61C72.3112 11.5772 73.2361 11.8139 74.0406 12.2918L73.4297 13.4428C72.81 13.0866 72.1098 12.8942 71.3951 12.8837C70.6151 12.8837 70.1515 13.17 70.1515 13.6473C70.1515 14.0837 70.6451 14.2064 71.2587 14.2882L71.9269 14.3837C73.3451 14.5882 74.2069 15.1882 74.2069 16.3364C74.2069 17.5773 73.1133 18.4664 71.2287 18.4664C70.2195 18.4941 69.228 18.1968 68.4006 17.6182L69.0469 16.5137C69.6767 16.9801 70.4454 17.2204 71.2287 17.1955C72.1997 17.1955 72.7178 16.9064 72.7178 16.4018C72.7178 16.0337 72.3469 15.8291 71.5697 15.72L70.9015 15.6246C69.4397 15.42 68.6487 14.7655 68.6487 13.6991C68.6487 12.4037 69.7233 11.61 71.376 11.61ZM112.091 11.61C111.386 11.5895 110.725 11.9568 110.371 12.5673V11.7737H108.963V18.3028H110.384V14.6428C110.384 13.5518 110.848 12.9628 111.778 12.9628C112.082 12.9584 112.384 13.014 112.667 13.1264L113.103 11.7873C112.779 11.6712 112.436 11.6112 112.091 11.61ZM97.2769 18.4664C95.1742 18.4664 93.7942 17.0182 93.7942 15.0382V15.0328C93.7942 13.0528 95.1742 11.6046 97.2769 11.6046C98.1296 11.5624 98.9672 11.8406 99.6251 12.3846L98.9433 13.5328C98.4521 13.1587 97.8534 12.9531 97.236 12.9464C96.1042 12.96 95.2697 13.7809 95.2697 15.0355C95.2697 16.29 96.1015 17.1246 97.236 17.1246C97.8534 17.1179 98.4521 16.9123 98.9433 16.5382L99.6251 17.6864C98.9672 18.2303 98.1296 18.5086 97.2769 18.4664ZM107.098 15.0382V11.7655H105.677V12.5591C105.185 11.9248 104.417 11.568 103.615 11.6018C101.785 11.6018 100.342 13.0364 100.342 15.03C100.342 17.0237 101.777 18.4582 103.615 18.4582C104.417 18.492 105.185 18.1353 105.677 17.5009V18.2918H107.098V15.0382ZM103.792 12.9491C102.562 12.9491 101.812 13.89 101.812 15.0382C101.812 16.1837 102.562 17.1273 103.792 17.1273C104.968 17.1273 105.759 16.2246 105.759 15.0382C105.759 13.8518 104.968 12.9491 103.792 12.9491ZM84.6687 11.61C82.7597 11.61 81.4178 13.0037 81.4178 15.0382C81.4178 17.1137 82.8115 18.4664 84.7642 18.4664C85.7392 18.5005 86.6927 18.1743 87.4424 17.55L86.7469 16.4973C86.2045 16.9313 85.5325 17.1713 84.8378 17.1791C83.9215 17.1791 83.0897 16.7564 82.8851 15.5809H87.7342C87.7478 15.4037 87.7615 15.2264 87.7615 15.0355C87.7615 13.0009 86.4906 11.6073 84.6606 11.6073L84.6687 11.61ZM86.2942 14.4655C86.1443 13.4542 85.5584 12.8815 84.6428 12.8809L84.6442 12.8809H84.6415L84.6428 12.8809C83.6319 12.8815 83.0596 13.5223 82.9097 14.4655H86.2942ZM122.098 17.7328C122.047 17.7114 121.993 17.7002 121.937 17.7H121.94C121.88 17.6986 121.82 17.7098 121.765 17.7328C121.664 17.7742 121.584 17.8535 121.541 17.9537C121.498 18.0564 121.498 18.1727 121.541 18.2755C121.609 18.4313 121.764 18.5312 121.934 18.5291C121.99 18.5296 122.046 18.5184 122.098 18.4964C122.148 18.4749 122.193 18.4444 122.231 18.4064C122.27 18.3689 122.3 18.3244 122.321 18.2755C122.366 18.1728 122.366 18.0564 122.321 17.9537C122.3 17.9047 122.27 17.8602 122.231 17.8228C122.193 17.7846 122.148 17.754 122.098 17.7328ZM121.939 18.4364C121.98 18.4364 122.021 18.4281 122.06 18.4118C122.097 18.3956 122.131 18.3725 122.161 18.3437C122.287 18.217 122.287 18.0121 122.161 17.8855C122.132 17.8565 122.097 17.8334 122.06 17.8173C122.02 17.8006 121.977 17.7922 121.934 17.7928C121.89 17.7922 121.847 17.8005 121.806 17.8173C121.707 17.8595 121.636 17.9477 121.615 18.0531C121.594 18.1584 121.627 18.2672 121.702 18.3437C121.732 18.3728 121.767 18.396 121.806 18.4118C121.848 18.4294 121.893 18.4377 121.939 18.4364ZM121.939 18.4364L121.934 18.4364H121.94L121.939 18.4364ZM122.073 17.9509C122.04 17.9269 122 17.9153 121.959 17.9182L121.781 17.9209V18.3028H121.863V18.1582H121.901L122.019 18.3028H122.117L121.991 18.1582C122.025 18.1557 122.056 18.1423 122.081 18.12C122.103 18.0996 122.115 18.0708 122.114 18.0409C122.116 18.0061 122.101 17.9727 122.073 17.9509ZM121.863 17.9891V18.0928H121.959C121.976 18.0977 121.994 18.0977 122.011 18.0928C122.023 18.0842 122.03 18.0698 122.03 18.0546C122.03 18.0394 122.023 18.0249 122.011 18.0164C121.994 18.0115 121.976 18.0115 121.959 18.0164L121.863 17.9891ZM116.973 12.9491C115.743 12.9491 114.993 13.89 114.993 15.0382C114.993 16.1837 115.743 17.1273 116.973 17.1273C118.149 17.1273 118.94 16.2246 118.94 15.0382C118.94 13.8518 118.149 12.9491 116.973 12.9491ZM67.0206 15.0382V11.7655H65.5997V12.5591C65.1081 11.9303 64.3435 11.5769 63.546 11.61C61.716 11.61 60.2733 13.0446 60.2733 15.0382C60.2733 17.0318 61.7078 18.4664 63.546 18.4664C64.3478 18.5002 65.1163 18.1434 65.6078 17.5091V18.3H67.0287L67.0206 15.0382ZM63.7151 12.9491C62.4851 12.9491 61.7351 13.89 61.7351 15.0382C61.7351 16.1864 62.4851 17.1273 63.7151 17.1273C64.8906 17.1273 65.6815 16.2246 65.6815 15.0382C65.6815 13.8518 64.8906 12.9491 63.7151 12.9491Z" fill="#231F20"/>
<rect x="21.9434" y="7.27637" width="8.59091" height="15.4391" fill="#FF5F00"/>
<path d="M22.4884 15C22.4861 11.9877 23.8689 9.1416 26.2384 7.28177C22.2129 4.11815 16.4321 4.57896 12.9586 8.34036C9.48514 12.1018 9.48514 17.9009 12.9586 21.6623C16.4321 25.4237 22.2129 25.8845 26.2384 22.7209C23.8681 20.8604 22.4852 18.0132 22.4884 15Z" fill="#EB001B"/>
<path d="M42.1246 15C42.1246 18.7591 39.9781 22.1881 36.5969 23.8308C33.2158 25.4735 29.1934 25.0415 26.2383 22.7181C28.6068 20.8567 29.9897 18.011 29.9897 14.9986C29.9897 11.9862 28.6068 9.14046 26.2383 7.27905C29.1938 4.95541 33.2168 4.52356 36.5982 6.16695C39.9796 7.81034 42.1256 11.2404 42.1246 15Z" fill="#F79E1B"/>
<path fill-rule="evenodd" clip-rule="evenodd" d="M41.8111 20.6973V21.0791L41.7402 21.0818V20.7927L41.6339 21.0409H41.5602L41.4539 20.7927V21.0791H41.3966V20.6973H41.4975L41.6121 20.97L41.7266 20.6973H41.8111ZM41.1811 20.7627V21.0791L41.1184 21.0818V20.7654H40.9902V20.7H41.3093V20.7627H41.1811Z" fill="#F79E1B"/>
</svg>
