<svg width="20" height="20" viewBox="0 0 20 20" fill="none" xmlns="http://www.w3.org/2000/svg">
<g id="user (1)">
<path id="Path" d="M20 10C20 15.5229 15.5229 20 10 20C4.47708 20 0 15.5229 0 10C0 4.47708 4.47708 0 10 0C15.5229 0 20 4.47708 20 10Z" fill="#41C59F"/>
<path id="Shape" fill-rule="evenodd" clip-rule="evenodd" d="M13.8665 6.85983C13.8665 8.09564 13.2714 9.19489 12.3528 9.88672C14.8124 10.8099 16.5674 13.1854 16.5676 15.9634H15.3957C15.3957 13.0319 13.0108 10.6471 10.0794 10.6471C7.14789 10.6471 4.76294 13.0319 4.76294 15.9634H3.59106C3.59106 13.1854 5.34628 10.8099 7.80569 9.88672C6.88712 9.19489 6.29218 8.09564 6.29218 6.85983C6.29218 4.77167 7.99109 3.07275 10.0793 3.07275C12.1676 3.07275 13.8665 4.77167 13.8665 6.85983ZM10.0793 4.24463C8.63715 4.24463 7.46405 5.41772 7.46405 6.85983C7.46405 8.30194 8.63715 9.47519 10.0793 9.47519C11.5214 9.47519 12.6945 8.30194 12.6945 6.85983C12.6945 5.41772 11.5214 4.24463 10.0793 4.24463Z" fill="white"/>
</g>
</svg>
