<svg width="62" height="20" viewBox="0 0 62 20" fill="none" xmlns="http://www.w3.org/2000/svg">
<path d="M26.7507 19.6904H21.75L24.8778 0.350586H29.8782L26.7507 19.6904Z" fill="#00579F"/>
<path d="M44.8776 0.823372C43.8912 0.432058 42.3268 0 40.3924 0C35.4541 0 31.9765 2.63337 31.9552 6.39829C31.9142 9.17604 34.445 10.7189 36.3379 11.6451C38.2726 12.5915 38.9302 13.2092 38.9302 14.0528C38.9105 15.3485 37.3669 15.9457 35.9271 15.9457C33.9306 15.9457 32.8609 15.6378 31.2352 14.9169L30.5767 14.6079L29.877 18.9493C31.0498 19.4836 33.2106 19.9578 35.4541 19.9786C40.7011 19.9786 44.1171 17.386 44.1576 13.3738C44.1775 11.1723 42.8412 9.48532 39.96 8.10683C38.211 7.22193 37.1399 6.62526 37.1399 5.71985C37.1604 4.89675 38.0459 4.05369 40.0202 4.05369C41.6459 4.0124 42.8403 4.40316 43.7452 4.7942L44.1975 4.99957L44.8776 0.823372Z" fill="#00579F"/>
<path fill-rule="evenodd" clip-rule="evenodd" d="M53.8286 0.350586H57.6966L61.7309 19.6901H57.1008C57.1008 19.6901 56.6477 17.468 56.5041 16.789H50.0837C49.898 17.3031 49.0342 19.6901 49.0342 19.6901H43.7871L51.215 1.95522C51.7296 0.700061 52.6358 0.350586 53.8286 0.350586ZM53.5204 7.42786C53.5204 7.42786 51.9358 11.7279 51.524 12.839H55.6805C55.4748 11.872 54.5279 7.24273 54.5279 7.24273L54.1784 5.5763C54.0312 6.00542 53.8184 6.59538 53.6748 6.9933C53.5775 7.26305 53.5121 7.44454 53.5204 7.42786Z" fill="#00579F"/>
<path d="M17.5728 0.350586L12.6755 13.5385L12.1403 10.8638C11.2349 7.77761 8.39535 4.42451 5.22656 2.75726L9.71231 19.6699H15.0004L22.8605 0.350586H17.5728V0.350586Z" fill="#00579F"/>
<path d="M8.12789 0.350586H0.0823098L0 0.741352C6.27605 2.34626 10.4326 6.21482 12.1403 10.8646L10.3913 1.97627C10.1033 0.741079 9.21843 0.391331 8.12789 0.350586Z" fill="#FAA61A"/>
</svg>
