<svg width="22" height="25" viewBox="0 0 22 25" fill="none" xmlns="http://www.w3.org/2000/svg">
<path d="M8.65737 11.2752C9.55762 10.4056 10.1278 9.18823 10.1278 7.82591C10.1278 7.33316 9.97774 6.78243 9.73768 6.20272C9.4676 5.59403 9.1075 4.98533 8.68738 4.34765C8.68738 4.31866 8.65737 4.31866 8.65737 4.28968C7.78712 3.01432 6.6468 1.76794 5.68652 0.695475L5.08635 0.0288086L4.48618 0.695475C2.62565 2.78243 0.0449219 5.652 0.0449219 7.82591C0.0449219 9.15924 0.615084 10.3766 1.51534 11.2752C2.4156 12.1448 3.67595 12.6955 5.08635 12.6955C6.46675 12.6955 7.7271 12.1448 8.65737 11.2752Z" fill="#41C59F"/>
<path d="M12.4994 1.44922C12.0493 1.97096 11.5391 2.52168 11.029 3.13038L10.2487 3.99994C10.6088 4.55067 10.9089 5.10139 11.149 5.65212C11.4791 6.40574 11.6591 7.13038 11.6591 7.82603C11.6591 9.56516 10.9389 11.1594 9.73859 12.3188C8.53825 13.4782 6.91779 14.1739 5.08727 14.1739C4.66715 14.1739 4.27704 14.1449 3.88693 14.0579C3.73689 14.0289 3.61686 13.9999 3.46681 13.971C3.4068 14.2028 3.34678 14.4347 3.28676 14.6666C3.19674 15.1014 3.13672 15.5072 3.13672 15.942C3.13672 18.4347 4.18702 20.6956 5.86749 22.3478C7.57798 23.9999 9.91865 24.9855 12.4994 24.9855C15.0801 24.9855 17.4208 23.971 19.1313 22.3478C20.8417 20.7246 21.862 18.4347 21.862 15.942C21.862 11.971 17.2707 6.86951 13.9698 3.15936C13.4597 2.52168 12.9795 1.97096 12.4994 1.44922Z" fill="#41C59F"/>
</svg>
